<svg width="16" height="20" viewBox="0 0 16 20" fill="none" xmlns="http://www.w3.org/2000/svg">
<path d="M13.5381 4.89061C14.5179 5.90466 15.2053 7.10672 15.6001 8.38459L15.6939 8.70965C16.4767 11.6322 15.7581 14.8951 13.5381 17.1927C12.9032 18.0125 12.0662 18.6721 11.1171 19.1439C10.0769 19.6914 8.89967 20 7.65275 20C5.85318 20 4.19868 19.3572 2.89198 18.2813L2.90735 18.2939L2.9094 18.2956L2.92347 18.2892C2.76105 18.157 2.60392 18.0182 2.45253 17.8731L2.44241 17.8809C0.939906 16.4349 0 14.3711 0 12.0802V12.0728V12.0655C0 9.72304 0.983523 7.61826 2.54652 6.16938C2.83876 5.87354 3.16178 5.56084 3.50551 5.22812L3.5061 5.22756C4.20429 4.55176 4.98759 3.79352 5.77092 2.92696C5.82757 2.8643 5.88135 2.80254 5.93239 2.74172C6.22053 2.37514 6.45157 2.02809 6.60024 1.69895C6.75085 1.34523 6.79569 1.0414 6.7774 0.789718C6.74464 0.512502 6.61798 0.249678 6.37674 0L6.41202 0.0165185L6.39819 0.00570378L6.41518 0.0180109C9.19041 1.32694 9.37895 2.95313 9.15821 4.09546C9.14332 4.17241 9.13024 4.2461 9.11887 4.3168C9.06292 4.49881 9.03274 4.69272 9.03274 4.89392C9.03274 5.9444 9.85562 6.79598 10.8707 6.79598C11.8857 6.79598 12.7086 5.9444 12.7086 4.89392C12.7086 4.4958 12.5904 4.12624 12.3883 3.8208C12.3823 3.80575 12.3762 3.79064 12.3699 3.77549C12.7625 4.12185 13.1542 4.49337 13.5381 4.89061Z" fill="url(#paint0_linear_803_623)"/>
<path d="M11.4613 10.9344C12.0737 11.5428 12.5033 12.264 12.7501 13.0308L12.8087 13.2258C13.2979 14.9793 12.8488 16.9371 11.4613 18.3156C11.0645 18.8075 10.5414 19.2032 9.94818 19.4864C9.29807 19.8148 8.56229 20 7.78297 20C6.65823 20 5.62418 19.6143 4.80749 18.9688L4.81709 18.9763L4.81838 18.9774L4.82717 18.9735C4.72565 18.8942 4.62745 18.8109 4.53283 18.7238L4.52651 18.7286C3.58744 17.8609 3 16.6227 3 15.2481V15.2437V15.2393C3 13.8338 3.6147 12.571 4.59157 11.7016C4.77423 11.5241 4.97611 11.3365 5.19094 11.1369L5.19131 11.1365C5.62768 10.7311 6.11724 10.2761 6.60682 9.75617C6.64223 9.71858 6.67584 9.68152 6.70774 9.64503C6.88783 9.42509 7.03223 9.21685 7.12515 9.01937C7.21928 8.80714 7.24731 8.62484 7.23587 8.47383C7.2154 8.3075 7.13624 8.14981 6.98546 8L7.00751 8.00991L6.99887 8.00342L7.00949 8.01081C8.74401 8.79616 8.86184 9.77188 8.72388 10.4573C8.71457 10.5034 8.7064 10.5477 8.69929 10.5901C8.66433 10.6993 8.64546 10.8156 8.64546 10.9364C8.64546 11.5666 9.15976 12.0776 9.79417 12.0776C10.4286 12.0776 10.9429 11.5666 10.9429 10.9364C10.9429 10.6975 10.869 10.4757 10.7427 10.2925L10.7312 10.2653C10.9765 10.4731 11.2214 10.696 11.4613 10.9344Z" fill="url(#paint1_linear_803_623)"/>
<defs>
<linearGradient id="paint0_linear_803_623" x1="20.8232" y1="3.97094" x2="5.18514" y2="16.4814" gradientUnits="userSpaceOnUse">
<stop stop-color="#FFED52"/>
<stop offset="0.302083" stop-color="#FFB23F"/>
<stop offset="1" stop-color="#FF5D39"/>
</linearGradient>
<linearGradient id="paint1_linear_803_623" x1="16.0145" y1="10.3826" x2="6.55476" y2="18.2657" gradientUnits="userSpaceOnUse">
<stop stop-color="#FFED52"/>
<stop offset="0.302083" stop-color="#FFB23F"/>
<stop offset="1" stop-color="#FF5D39"/>
</linearGradient>
</defs>
</svg>