<svg width="11" height="11" viewBox="0 0 11 11" fill="none" xmlns="http://www.w3.org/2000/svg">
<g clip-path="url(#clip0_705_22755)">
<path d="M4.55602 8.62489C3.57976 8.62489 2.78516 7.83029 2.78516 6.85403V2.58325H2.05602C1.42392 2.58325 0.910156 3.09694 0.910156 3.72903V9.35403C0.910156 9.98613 1.42392 10.4999 2.05602 10.4999H7.2643C7.89639 10.4999 8.41016 9.98613 8.41016 9.35403V8.62489H4.55602Z" fill="#FF5D39"/>
<path d="M10.7018 1.02086C10.7018 0.387924 10.1889 -0.125 9.55602 -0.125H5.18102C4.54808 -0.125 4.03516 0.387924 4.03516 1.02086V6.22914C4.03516 6.86208 4.54808 7.375 5.18102 7.375H9.55602C10.1889 7.375 10.7018 6.86208 10.7018 6.22914V1.02086Z" fill="#FF5D39"/>
</g>
<defs>
<clipPath id="clip0_705_22755">
<rect width="10" height="10" fill="white" transform="translate(0.5 0.5)"/>
</clipPath>
</defs>
</svg>