<svg width="22" height="18" viewBox="0 0 22 18" fill="none" xmlns="http://www.w3.org/2000/svg">
<g opacity="0.5" filter="url(#filter0_b_803_605)">
<circle cx="14.1816" cy="3.36369" r="3.36369" fill="#EAEBF0" fill-opacity="0.4"/>
<path d="M14.3727 8.33325C10.6908 8.33325 7.70605 10.9421 7.70605 14.1603C7.70605 14.1603 11.8727 16.4263 14.3727 13.5128C16.8727 10.5993 21.0393 14.1603 21.0393 14.1603C21.0393 10.9421 18.0546 8.33325 14.3727 8.33325Z" fill="#EAEBF0" fill-opacity="0.2"/>
</g>
<g filter="url(#filter1_b_803_605)">
<circle cx="6.47551" cy="6.36369" r="3.36369" fill="#EAEBF0" fill-opacity="0.4"/>
<path d="M6.66663 11.3333C2.98475 11.3333 0 13.9421 0 17.1603C0 17.1603 4.16664 19.4263 6.66663 16.5128C9.16661 13.5993 13.3333 17.1603 13.3333 17.1603C13.3333 13.9421 10.3485 11.3333 6.66663 11.3333Z" fill="#EAEBF0" fill-opacity="0.2"/>
</g>
<defs>
<filter id="filter0_b_803_605" x="-55.2448" y="-62.9508" width="139.235" height="140.901" filterUnits="userSpaceOnUse" color-interpolation-filters="sRGB">
<feFlood flood-opacity="0" result="BackgroundImageFix"/>
<feGaussianBlur in="BackgroundImageFix" stdDeviation="31.4754"/>
<feComposite in2="SourceAlpha" operator="in" result="effect1_backgroundBlur_803_605"/>
<feBlend mode="normal" in="SourceGraphic" in2="effect1_backgroundBlur_803_605" result="shape"/>
</filter>
<filter id="filter1_b_803_605" x="-62.9508" y="-59.9508" width="139.235" height="140.901" filterUnits="userSpaceOnUse" color-interpolation-filters="sRGB">
<feFlood flood-opacity="0" result="BackgroundImageFix"/>
<feGaussianBlur in="BackgroundImageFix" stdDeviation="31.4754"/>
<feComposite in2="SourceAlpha" operator="in" result="effect1_backgroundBlur_803_605"/>
<feBlend mode="normal" in="SourceGraphic" in2="effect1_backgroundBlur_803_605" result="shape"/>
</filter>
</defs>
</svg>