<svg width="19" height="18" viewBox="0 0 19 18" fill="none" xmlns="http://www.w3.org/2000/svg">
<g clip-path="url(#clip0_701_10099)">
<path d="M11.875 3.70105C12.1594 3.70105 12.4403 3.71438 12.7172 3.73918C12.0072 3.01613 11.1423 2.44121 10.1787 2.05191C9.21511 1.66262 8.1746 1.46771 7.12504 1.47991C3.19619 1.47991 3.76929e-05 4.13695 3.76929e-05 7.40296C0.00768073 8.83408 0.611103 10.2061 1.68233 11.2281C1.28808 11.9659 0.854246 12.4683 0.437434 12.6637C0.277874 12.7383 0.149922 12.8611 0.074319 13.0122C-0.00128446 13.1633 -0.0201085 13.3339 0.0208979 13.4962C0.0619043 13.6586 0.160338 13.8032 0.300243 13.9067C0.440149 14.0102 0.613326 14.0665 0.791705 14.0664C2.15726 14.0868 3.50838 13.8027 4.73322 13.2377C4.22552 12.3544 3.95934 11.3673 3.95837 10.3645C3.95837 6.69016 7.50979 3.70105 11.875 3.70105Z" fill="#EAEBF0" fill-opacity="0.2"/>
<path d="M18.5624 15.6261C18.1456 15.4312 17.7114 14.9283 17.3175 14.1905C18.3888 13.1685 18.9923 11.7965 19 10.3653C19 7.0993 15.8038 4.44226 11.875 4.44226C7.94616 4.44226 4.75 7.0993 4.75 10.3653C4.75 13.6313 7.94616 16.2884 11.875 16.2884C12.5708 16.2893 13.2637 16.2048 13.9359 16.037C15.2417 16.7139 16.7156 17.0561 18.2083 17.0287C18.3867 17.0288 18.5598 16.9725 18.6997 16.869C18.8396 16.7655 18.938 16.6208 18.979 16.4585C19.0199 16.2961 19.0011 16.1256 18.9255 15.9745C18.8499 15.8234 18.722 15.7007 18.5624 15.6261ZM12.6667 13.3268H11.0833V10.3653H12.6667V13.3268ZM11.875 9.62493C11.7184 9.62493 11.5654 9.58151 11.4352 9.50015C11.305 9.4188 11.2035 9.30317 11.1436 9.16788C11.0837 9.03259 11.068 8.88373 11.0985 8.74011C11.1291 8.59649 11.2045 8.46456 11.3152 8.36102C11.4259 8.25748 11.567 8.18696 11.7206 8.15839C11.8741 8.12983 12.0333 8.14449 12.178 8.20053C12.3226 8.25656 12.4463 8.35146 12.5332 8.47321C12.6202 8.59497 12.6667 8.73812 12.6667 8.88455C12.6667 9.08091 12.5833 9.26923 12.4348 9.40808C12.2863 9.54693 12.085 9.62493 11.875 9.62493Z" fill="#EAEBF0" fill-opacity="0.4"/>
</g>
<defs>
<clipPath id="clip0_701_10099">
<rect width="19" height="17.7692" fill="white"/>
</clipPath>
</defs>
</svg>