<svg width="122" height="41" viewBox="0 0 122 41" fill="none" xmlns="http://www.w3.org/2000/svg">
<g filter="url(#filter0_b_701_9696)">
<path fill-rule="evenodd" clip-rule="evenodd" d="M23.1149 38.4621C20.9521 39.562 18.5044 40.1821 15.9117 40.1821C12.1866 40.1821 8.76045 38.902 6.04918 36.7577C13.7266 33.3769 19.7508 25.4036 22.3266 21.7678L22.3269 21.7674L22.3271 21.7671L22.3271 21.767C22.7305 21.1977 23.0584 20.7349 23.3067 20.413C23.7209 19.7465 24.4597 19.3027 25.3022 19.3027C26.0051 19.3027 26.6358 19.6116 27.0661 20.1011C27.2114 20.2428 27.4003 20.4198 27.6498 20.607C28.3454 21.1287 30.5192 21.3373 32.6059 17.4768C32.6144 17.484 32.6227 17.4913 32.6309 17.4986C32.5702 17.2799 32.5053 17.0622 32.436 16.8455C31.3473 17.7989 29.9215 18.3767 28.3606 18.3767C27.5947 18.3767 26.6732 18.1459 26.1409 18.0125L26.0847 17.9985L26.0847 17.9985C25.563 17.8681 25.0413 17.7376 24.4407 17.5236C23.0301 17.0379 21.8813 16.3275 20.7859 15.6502C19.1445 14.6353 17.623 13.6945 15.5204 13.6945C11.8685 13.6945 9.82521 16.7377 9.26004 18.2593L9.91216 18.9115V18.7876C10.3176 17.9908 10.8171 17.2637 11.385 16.6885C11.7282 16.2984 12.1497 15.9787 12.6249 15.7542C13.1002 15.5297 13.564 15.4084 14.1425 15.3916C14.1799 15.3905 14.2175 15.39 14.2553 15.39C14.7246 15.39 15.1773 15.4663 15.5895 15.6293C16.2603 15.8948 16.4334 16.0421 16.9805 16.5326C17.6585 17.2222 18.0767 18.168 18.0767 19.2114C18.0767 20.0226 17.7842 20.8717 17.2159 22.0416C15.6993 25.1638 10.0048 32.2282 5.07825 35.9246C1.95423 33.0193 0 28.873 0 24.2703C0 20.8706 1.06625 17.7198 2.88259 15.1343L2.86933 15.1406C3.1255 14.7564 3.44108 14.3581 3.80634 13.9431C4.15891 13.5302 4.53222 13.1356 4.92468 12.7608C5.62563 12.0594 6.42647 11.3103 7.28996 10.5027L7.28998 10.5027C8.74164 9.14491 10.3703 7.62155 11.999 5.88054C12.1168 5.75465 12.2286 5.63059 12.3347 5.50838C12.9338 4.77191 13.4142 4.07463 13.7234 3.41337C14.0365 2.70273 14.1297 2.09226 14.0917 1.58662C14.0236 1.02965 13.7603 0.501645 13.2586 0L13.332 0.033201C13.3224 0.0257639 13.3128 0.0185179 13.3032 0.0114615L13.3386 0.036202C19.1089 2.66594 19.5009 5.93313 19.0419 8.22817C19.011 8.38278 18.9837 8.53085 18.9601 8.67288C18.8438 9.03858 18.7811 9.42815 18.7811 9.83239C18.7811 11.9429 20.492 13.6538 22.6025 13.6538C24.713 13.6538 26.4239 11.9429 26.4239 9.83239C26.4239 9.03253 26.1782 8.29006 25.7581 7.67637C25.7456 7.64612 25.7329 7.61579 25.7198 7.58536C26.536 8.28123 27.3505 9.02763 28.1486 9.82576C34.9738 16.6509 34.9738 27.7167 28.1487 34.5418C26.8285 36.1889 25.0883 37.5141 23.1149 38.4621ZM21.1286 28.1716C20.8004 28.1716 20.4879 28.2389 20.2042 28.3606C21.08 27.4097 21.8826 26.4695 22.6038 25.5811C24.721 26.0926 28.3144 28.193 26.8969 30.6028C25.5926 32.82 22.6617 35.755 21.5495 36.6023L20.8755 36.1813C22.8414 33.5405 23.197 32.1454 23.3256 31.6409L23.3367 31.5976L23.3458 31.5626C23.459 31.1361 23.4762 30.8601 23.4762 30.5192C23.4762 29.2226 22.4252 28.1716 21.1286 28.1716Z" fill="url(#paint0_linear_701_9696)"/>
</g>
<path d="M38.0476 26.8397C38.0476 25.2336 38.3688 23.8354 39.0112 22.645C39.6537 21.4357 40.5417 20.5004 41.6754 19.8391C42.828 19.1778 44.1412 18.8471 45.615 18.8471C47.5234 18.8471 49.0917 19.3101 50.3198 20.2359C51.5669 21.1618 52.3888 22.4466 52.7856 24.0905H50.0081C49.7435 23.1457 49.2239 22.3994 48.4492 21.8514C47.6934 21.3035 46.7487 21.0295 45.615 21.0295C44.1412 21.0295 42.9508 21.5397 42.0439 22.56C41.1369 23.5614 40.6834 24.988 40.6834 26.8397C40.6834 28.7103 41.1369 30.1557 42.0439 31.176C42.9508 32.1964 44.1412 32.7065 45.615 32.7065C46.7487 32.7065 47.6934 32.442 48.4492 31.9129C49.205 31.3839 49.7246 30.6281 50.0081 29.6456H52.7856C52.3699 31.2327 51.5386 32.5081 50.2915 33.4718C49.0444 34.4165 47.4856 34.8889 45.615 34.8889C44.1412 34.8889 42.828 34.5582 41.6754 33.8969C40.5417 33.2356 39.6537 32.3003 39.0112 31.091C38.3688 29.8817 38.0476 28.4646 38.0476 26.8397Z" fill="white"/>
<path d="M53.5628 26.8113C53.5628 25.2242 53.884 23.8354 54.5265 22.645C55.1689 21.4357 56.0475 20.5004 57.1623 19.8391C58.296 19.1778 59.5525 18.8471 60.9318 18.8471C62.2922 18.8471 63.4732 19.14 64.4746 19.7258C65.476 20.3115 66.2224 21.0484 66.7136 21.9365V19.1022H69.3211V34.6338H66.7136V31.7429C66.2035 32.6498 65.4382 33.4056 64.4179 34.0103C63.4165 34.596 62.245 34.8889 60.9035 34.8889C59.5241 34.8889 58.2771 34.5488 57.1623 33.8686C56.0475 33.1883 55.1689 32.2342 54.5265 31.006C53.884 29.7778 53.5628 28.3796 53.5628 26.8113ZM66.7136 26.8397C66.7136 25.6682 66.4775 24.6479 66.0051 23.7787C65.5327 22.9095 64.8903 22.2482 64.0778 21.7947C63.2842 21.3224 62.4056 21.0862 61.442 21.0862C60.4783 21.0862 59.5997 21.3129 58.8061 21.7664C58.0126 22.2199 57.3796 22.8812 56.9072 23.7504C56.4348 24.6195 56.1986 25.6398 56.1986 26.8113C56.1986 28.0017 56.4348 29.0409 56.9072 29.929C57.3796 30.7981 58.0126 31.4689 58.8061 31.9413C59.5997 32.3948 60.4783 32.6215 61.442 32.6215C62.4056 32.6215 63.2842 32.3948 64.0778 31.9413C64.8903 31.4689 65.5327 30.7981 66.0051 29.929C66.4775 29.0409 66.7136 28.0112 66.7136 26.8397Z" fill="white"/>
<path d="M74.5583 13.6605V34.6338H71.9791V13.6605H74.5583Z" fill="white"/>
<path d="M84.0273 34.8889C82.5724 34.8889 81.2497 34.5582 80.0593 33.8969C78.8879 33.2356 77.962 32.3003 77.2818 31.091C76.6205 29.8628 76.2898 28.4457 76.2898 26.8397C76.2898 25.2525 76.6299 23.8543 77.3101 22.645C78.0092 21.4168 78.954 20.4815 80.1444 19.8391C81.3347 19.1778 82.6668 18.8471 84.1406 18.8471C85.6144 18.8471 86.9465 19.1778 88.1369 19.8391C89.3273 20.4815 90.2626 21.4074 90.9428 22.6167C91.6419 23.8259 91.9914 25.2336 91.9914 26.8397C91.9914 28.4457 91.6324 29.8628 90.9144 31.091C90.2153 32.3003 89.2611 33.2356 88.0519 33.8969C86.8426 34.5582 85.5011 34.8889 84.0273 34.8889ZM84.0273 32.6215C84.9531 32.6215 85.8223 32.4042 86.6348 31.9696C87.4472 31.535 88.0991 30.8832 88.5904 30.014C89.1005 29.1448 89.3556 28.0867 89.3556 26.8397C89.3556 25.5926 89.11 24.5345 88.6187 23.6653C88.1275 22.7962 87.485 22.1537 86.6914 21.7381C85.8979 21.3035 85.0381 21.0862 84.1123 21.0862C83.1675 21.0862 82.2984 21.3035 81.5048 21.7381C80.7301 22.1537 80.1066 22.7962 79.6342 23.6653C79.1618 24.5345 78.9256 25.5926 78.9256 26.8397C78.9256 28.1056 79.1524 29.1732 79.6059 30.0424C80.0782 30.9115 80.7018 31.5634 81.4765 31.998C82.2511 32.4137 83.1014 32.6215 84.0273 32.6215Z" fill="white"/>
<path d="M96.2612 21.6247C96.7147 20.7366 97.3571 20.047 98.1885 19.5557C99.0387 19.0644 100.068 18.8188 101.278 18.8188V21.483H100.598C97.7066 21.483 96.2612 23.0512 96.2612 26.1878V34.6338H93.682V19.1022H96.2612V21.6247Z" fill="white"/>
<path d="M103.887 16.5798C103.395 16.5798 102.98 16.4097 102.64 16.0696C102.299 15.7295 102.129 15.3138 102.129 14.8225C102.129 14.3313 102.299 13.9156 102.64 13.5755C102.98 13.2354 103.395 13.0653 103.887 13.0653C104.359 13.0653 104.756 13.2354 105.077 13.5755C105.417 13.9156 105.587 14.3313 105.587 14.8225C105.587 15.3138 105.417 15.7295 105.077 16.0696C104.756 16.4097 104.359 16.5798 103.887 16.5798ZM105.134 19.1022V34.6338H102.555V19.1022H105.134Z" fill="white"/>
<path d="M122 26.2728C122 26.7641 121.972 27.2837 121.915 27.8317H109.501C109.596 29.3621 110.115 30.562 111.06 31.4311C112.023 32.2814 113.186 32.7065 114.546 32.7065C115.661 32.7065 116.587 32.4514 117.324 31.9413C118.079 31.4122 118.608 30.7131 118.911 29.844H121.688C121.273 31.3367 120.441 32.5554 119.194 33.5001C117.947 34.426 116.398 34.8889 114.546 34.8889C113.072 34.8889 111.75 34.5582 110.578 33.8969C109.425 33.2356 108.518 32.3003 107.857 31.091C107.196 29.8628 106.865 28.4457 106.865 26.8397C106.865 25.2336 107.186 23.8259 107.829 22.6167C108.471 21.4074 109.369 20.4815 110.521 19.8391C111.693 19.1778 113.034 18.8471 114.546 18.8471C116.02 18.8471 117.324 19.1684 118.457 19.8108C119.591 20.4532 120.46 21.3413 121.065 22.475C121.688 23.5898 122 24.8557 122 26.2728ZM119.336 25.7343C119.336 24.7518 119.119 23.911 118.684 23.2119C118.249 22.4938 117.654 21.9553 116.898 21.5963C116.161 21.2184 115.34 21.0295 114.433 21.0295C113.129 21.0295 112.014 21.4452 111.088 22.2766C110.181 23.1079 109.662 24.2605 109.529 25.7343H119.336Z" fill="white"/>
<path d="M94.2327 37.6617C94.3345 37.4835 94.4836 37.3381 94.6799 37.2254C94.8762 37.1127 95.0998 37.0564 95.3507 37.0564C95.6197 37.0564 95.8615 37.12 96.076 37.2472C96.2905 37.3745 96.4595 37.5544 96.5832 37.7871C96.7068 38.0162 96.7686 38.2834 96.7686 38.5888C96.7686 38.8905 96.7068 39.1596 96.5832 39.3959C96.4595 39.6322 96.2887 39.8158 96.0705 39.9467C95.856 40.0776 95.6161 40.143 95.3507 40.143C95.0925 40.143 94.8653 40.0867 94.669 39.974C94.4763 39.8613 94.3309 39.7176 94.2327 39.5431V40.0939H93.7365V36.0584H94.2327V37.6617ZM96.2614 38.5888C96.2614 38.3634 96.216 38.167 96.1251 37.9998C96.0342 37.8326 95.9106 37.7053 95.7542 37.6181C95.6015 37.5308 95.4325 37.4872 95.2471 37.4872C95.0653 37.4872 94.8962 37.5326 94.7399 37.6235C94.5872 37.7108 94.4636 37.8398 94.3691 38.0107C94.2782 38.178 94.2327 38.3725 94.2327 38.5942C94.2327 38.8196 94.2782 39.0178 94.3691 39.1887C94.4636 39.3559 94.5872 39.485 94.7399 39.5759C94.8962 39.6631 95.0653 39.7067 95.2471 39.7067C95.4325 39.7067 95.6015 39.6631 95.7542 39.5759C95.9106 39.485 96.0342 39.3559 96.1251 39.1887C96.216 39.0178 96.2614 38.8178 96.2614 38.5888Z" fill="white"/>
<path d="M99.9086 37.1054V40.0939H99.4123V39.6522C99.3178 39.8049 99.1851 39.9249 99.0142 40.0121C98.847 40.0958 98.6616 40.1376 98.458 40.1376C98.2253 40.1376 98.0162 40.0903 97.8308 39.9958C97.6454 39.8976 97.4981 39.7522 97.3891 39.5595C97.2836 39.3668 97.2309 39.1323 97.2309 38.856V37.1054H97.7217V38.7906C97.7217 39.085 97.7963 39.3123 97.9453 39.4722C98.0944 39.6286 98.298 39.7067 98.5561 39.7067C98.8215 39.7067 99.0306 39.6249 99.1833 39.4613C99.336 39.2977 99.4123 39.0596 99.4123 38.7469V37.1054H99.9086Z" fill="white"/>
<path d="M101.079 37.5908C101.166 37.4199 101.29 37.2872 101.45 37.1927C101.614 37.0982 101.812 37.0509 102.044 37.0509V37.5635H101.914C101.357 37.5635 101.079 37.8653 101.079 38.4688V40.0939H100.583V37.1054H101.079V37.5908Z" fill="white"/>
<path d="M103.91 37.0509C104.273 37.0509 104.568 37.1618 104.793 37.3836C105.019 37.6017 105.131 37.918 105.131 38.3325V40.0939H104.641V38.4034C104.641 38.1052 104.566 37.878 104.417 37.7217C104.268 37.5617 104.064 37.4817 103.806 37.4817C103.544 37.4817 103.335 37.5635 103.179 37.7271C103.026 37.8907 102.95 38.1289 102.95 38.4415V40.0939H102.454V37.1054H102.95V37.5308C103.048 37.3781 103.181 37.26 103.348 37.1763C103.519 37.0927 103.706 37.0509 103.91 37.0509Z" fill="white"/>
<path d="M108.285 37.5144H107.658V40.0939H107.161V37.5144H106.774V37.1054H107.161V36.8928C107.161 36.5583 107.247 36.3147 107.418 36.162C107.592 36.0057 107.87 35.9275 108.252 35.9275V36.342C108.034 36.342 107.879 36.3856 107.789 36.4728C107.701 36.5565 107.658 36.6964 107.658 36.8928V37.1054H108.285V37.5144Z" fill="white"/>
<path d="M110.003 40.143C109.723 40.143 109.469 40.0794 109.24 39.9521C109.014 39.8249 108.836 39.6449 108.705 39.4123C108.578 39.1759 108.514 38.9033 108.514 38.5942C108.514 38.2888 108.58 38.0198 108.711 37.7871C108.845 37.5508 109.027 37.3708 109.256 37.2472C109.485 37.12 109.741 37.0564 110.025 37.0564C110.309 37.0564 110.565 37.12 110.794 37.2472C111.023 37.3708 111.203 37.549 111.334 37.7817C111.468 38.0143 111.536 38.2852 111.536 38.5942C111.536 38.9033 111.467 39.1759 111.328 39.4123C111.194 39.6449 111.01 39.8249 110.778 39.9521C110.545 40.0794 110.287 40.143 110.003 40.143ZM110.003 39.7067C110.181 39.7067 110.349 39.6649 110.505 39.5813C110.661 39.4977 110.787 39.3723 110.881 39.205C110.979 39.0378 111.028 38.8342 111.028 38.5942C111.028 38.3543 110.981 38.1507 110.887 37.9834C110.792 37.8162 110.669 37.6926 110.516 37.6126C110.363 37.529 110.198 37.4872 110.02 37.4872C109.838 37.4872 109.671 37.529 109.518 37.6126C109.369 37.6926 109.249 37.8162 109.158 37.9834C109.067 38.1507 109.022 38.3543 109.022 38.5942C109.022 38.8378 109.065 39.0432 109.152 39.2105C109.243 39.3777 109.363 39.5031 109.512 39.5868C109.661 39.6667 109.825 39.7067 110.003 39.7067Z" fill="white"/>
<path d="M112.521 37.5908C112.608 37.4199 112.732 37.2872 112.892 37.1927C113.055 37.0982 113.253 37.0509 113.486 37.0509V37.5635H113.355C112.799 37.5635 112.521 37.8653 112.521 38.4688V40.0939H112.025V37.1054H112.521V37.5908Z" fill="white"/>
<path d="M115.682 36.0584V40.0939H115.186V36.0584H115.682Z" fill="white"/>
<path d="M116.62 36.6201C116.526 36.6201 116.446 36.5874 116.38 36.5219C116.315 36.4565 116.282 36.3765 116.282 36.282C116.282 36.1874 116.315 36.1075 116.38 36.042C116.446 35.9766 116.526 35.9439 116.62 35.9439C116.711 35.9439 116.788 35.9766 116.849 36.042C116.915 36.1075 116.948 36.1874 116.948 36.282C116.948 36.3765 116.915 36.4565 116.849 36.5219C116.788 36.5874 116.711 36.6201 116.62 36.6201ZM116.86 37.1054V40.0939H116.364V37.1054H116.86Z" fill="white"/>
<path d="M118.759 37.5144H118.131V40.0939H117.635V37.5144H117.248V37.1054H117.635V36.8928C117.635 36.5583 117.721 36.3147 117.892 36.162C118.066 36.0057 118.344 35.9275 118.726 35.9275V36.342C118.508 36.342 118.353 36.3856 118.262 36.4728C118.175 36.5565 118.131 36.6964 118.131 36.8928V37.1054H118.759V37.5144Z" fill="white"/>
<path d="M121.9 38.4852C121.9 38.5797 121.895 38.6797 121.884 38.7851H119.495C119.514 39.0796 119.614 39.3105 119.795 39.4777C119.981 39.6413 120.204 39.7231 120.466 39.7231C120.681 39.7231 120.859 39.674 121.001 39.5759C121.146 39.4741 121.248 39.3395 121.306 39.1723H121.84C121.76 39.4595 121.6 39.694 121.36 39.8758C121.121 40.0539 120.822 40.143 120.466 40.143C120.183 40.143 119.928 40.0794 119.703 39.9521C119.481 39.8249 119.306 39.6449 119.179 39.4123C119.052 39.1759 118.988 38.9033 118.988 38.5942C118.988 38.2852 119.05 38.0143 119.174 37.7817C119.297 37.549 119.47 37.3708 119.692 37.2472C119.917 37.12 120.175 37.0564 120.466 37.0564C120.75 37.0564 121.001 37.1182 121.219 37.2418C121.437 37.3654 121.604 37.5363 121.72 37.7544C121.84 37.9689 121.9 38.2125 121.9 38.4852ZM121.388 38.3815C121.388 38.1925 121.346 38.0307 121.262 37.8962C121.179 37.758 121.064 37.6544 120.919 37.5853C120.777 37.5126 120.619 37.4763 120.444 37.4763C120.193 37.4763 119.979 37.5563 119.801 37.7162C119.626 37.8762 119.526 38.098 119.501 38.3815H121.388Z" fill="white"/>
<defs>
<filter id="filter0_b_701_9696" x="-2.48721" y="-2.48721" width="38.2419" height="45.1565" filterUnits="userSpaceOnUse" color-interpolation-filters="sRGB">
<feFlood flood-opacity="0" result="BackgroundImageFix"/>
<feGaussianBlur in="BackgroundImageFix" stdDeviation="1.24361"/>
<feComposite in2="SourceAlpha" operator="in" result="effect1_backgroundBlur_701_9696"/>
<feBlend mode="normal" in="SourceGraphic" in2="effect1_backgroundBlur_701_9696" result="shape"/>
</filter>
<linearGradient id="paint0_linear_701_9696" x1="43.2961" y1="7.97803" x2="11.6579" y2="34.172" gradientUnits="userSpaceOnUse">
<stop stop-color="#FFED52"/>
<stop offset="0.302083" stop-color="#FFB23F"/>
<stop offset="1" stop-color="#FF5D39"/>
</linearGradient>
</defs>
</svg>