<svg width="44" height="33" viewBox="0 0 44 33" fill="none" xmlns="http://www.w3.org/2000/svg">
<g opacity="0.7">
<path d="M10.4857 5.4045C10.023 5.26075 8.95025 5.35784 8.36133 6.89618C8.27794 7.114 8.16243 7.41404 8.023 7.77621C6.9316 10.6112 4.37466 17.2531 4.28655 18.0636C4.18718 18.9776 4.07211 20.5871 7.26718 22.7122C10.4622 24.8373 19.9095 28.9551 21.5139 25.8112C22.9661 22.0179 26.373 14.5391 27.2007 12.722C27.279 12.5503 27.3341 12.4292 27.3625 12.3665C27.3844 12.3179 27.408 12.2674 27.4324 12.2152C27.5599 11.9423 27.7095 11.6219 27.7677 11.2707C27.7576 11.3315 27.7448 11.3914 27.7298 11.4503C27.7192 11.4644 27.7083 11.4785 27.6971 11.4924C26.8353 12.5655 22.1666 11.2793 19.5444 10.2755C16.9223 9.27163 13.5999 7.34831 12.2209 6.36941C11.1721 5.62495 10.6302 5.40962 10.4648 5.3894C10.4727 5.39492 10.4797 5.39997 10.4857 5.4045Z" fill="url(#paint0_linear_705_21028)"/>
<path d="M10.4857 5.39761C10.651 5.41805 11.1929 5.63331 12.2422 6.37595C13.6219 7.35244 16.9453 9.27223 19.5671 10.276C22.189 11.2797 26.8562 12.5683 27.7151 11.5025C27.7263 11.4886 27.7372 11.4747 27.7478 11.4606C27.9054 10.8385 27.82 10.1022 26.7844 9.35307C25.1758 8.18932 14.055 1.64071 11.2717 3.41432C10.4102 3.96328 9.96956 4.45993 9.65337 4.9155C9.64294 4.93543 9.63265 4.95507 9.62227 4.9745C10.0791 5.14939 10.3745 5.32033 10.4857 5.39761Z" fill="url(#paint1_linear_705_21028)"/>
<g filter="url(#filter0_i_705_21028)">
<path d="M10.4857 5.39761C10.651 5.41805 11.1929 5.63331 12.2422 6.37595C13.6219 7.35244 16.9453 9.27223 19.5671 10.276C22.189 11.2797 26.8562 12.5683 27.7151 11.5025C27.7263 11.4886 27.7372 11.4747 27.7478 11.4606C27.9054 10.8385 27.82 10.1022 26.7844 9.35307C25.1758 8.18932 14.055 1.64071 11.2717 3.41432C10.4102 3.96328 9.96956 4.45993 9.65337 4.9155C9.64294 4.93543 9.63265 4.95507 9.62227 4.9745C10.0791 5.14939 10.3745 5.32033 10.4857 5.39761Z" fill="url(#paint2_linear_705_21028)"/>
</g>
<path d="M10.2678 5.26918C10.6926 5.16145 11.4286 5.22296 12.4492 5.90498C12.5814 5.99331 12.7189 6.08566 12.8614 6.18138C14.6115 7.35699 17.1205 9.04241 19.9244 10.0695C22.9566 11.1802 27.0637 12.1011 27.0449 10.8412C27.0309 9.89908 25.8386 8.81409 24.2411 7.75648C25.4375 8.43578 26.3347 9.01697 26.7704 9.33313C27.8054 10.0842 27.8895 10.8242 27.7304 11.4498C27.7198 11.464 27.7089 11.478 27.6977 11.492C26.8359 12.5651 22.1672 11.2789 19.5451 10.275C16.9229 9.27119 13.6005 7.34788 12.2215 6.36898C11.1727 5.62451 10.6308 5.40919 10.4654 5.38896C10.4243 5.36033 10.3581 5.31888 10.2678 5.26918Z" fill="url(#paint3_linear_705_21028)"/>
<g filter="url(#filter1_dii_705_21028)">
<ellipse cx="10.2415" cy="8.29614" rx="0.705712" ry="0.906948" transform="rotate(-10.7585 10.2415 8.29614)" fill="#FF5D39"/>
</g>
<path fill-rule="evenodd" clip-rule="evenodd" d="M5.22564 11.5079C5.23781 11.4947 5.24978 11.4823 5.26147 11.471C5.26176 11.474 5.26207 11.4779 5.26244 11.4828C5.26636 11.5338 5.27811 11.6865 5.37311 11.9647C5.47006 12.2485 5.65494 12.4863 5.83324 12.7157C5.91563 12.8217 5.99663 12.9259 6.06688 13.032L5.60502 14.2384C5.42181 14.0073 5.29705 13.8119 5.22318 13.6606C4.81708 12.8289 4.92585 11.8685 5.22564 11.5079Z" fill="#221B24"/>
<path d="M4.54141 18.7282C6.09241 14.8691 8.55395 7.86241 9.12746 6.94114C9.40471 6.49577 10.0041 5.80471 11.133 6.6049C12.262 7.40509 14.1865 8.91469 18.2656 10.6603C22.3447 12.4059 25.9927 13.0664 27.5065 12.2843" stroke="url(#paint4_linear_705_21028)" stroke-width="0.132565" stroke-dasharray="0.44 0.44"/>
<g filter="url(#filter2_d_705_21028)">
<path d="M25.9913 17.5899L25.5484 18.0221L25.5301 16.7614C24.6919 17.0757 21.3464 17.0653 14.6708 14.5097C6.32632 11.3152 6.37553 7.52295 6.61282 6.51059C6.6173 6.49147 6.62263 6.47206 6.62879 6.45237C7.13186 5.15478 9.04526 4.08205 10.5147 5.34664C10.5339 5.47099 10.1215 5.19611 9.56089 5.48294C8.61073 5.87137 7.73642 7.8935 8.29571 9.3111C8.85501 10.7287 11.5347 12.7575 16.9957 14.8481C21.3646 16.5206 24.4277 16.2391 24.8711 16.2584C25.3146 16.2777 25.3889 16.607 25.3889 16.607C25.3889 16.607 25.6502 16.0552 25.8446 15.6783C26.039 15.3014 26.3864 16.4875 26.152 17.0998C26.1279 17.2056 26.0707 17.3766 25.9913 17.5899Z" fill="url(#paint5_linear_705_21028)" shape-rendering="crispEdges"/>
</g>
<g filter="url(#filter3_d_705_21028)">
<path d="M25.5611 17.9855L26.0035 17.5554C25.6964 18.38 25.0551 19.8392 24.708 20.6068L24.3017 20.7511C24.3685 20.5768 24.3477 20.369 24.1123 20.3288C23.9657 20.3038 23.908 20.3516 23.8082 20.4342C23.7478 20.4841 23.6721 20.5469 23.5518 20.6139C23.233 20.7916 22.4014 20.7631 20.0418 20.2195C14.9697 18.9272 12.9743 18.1134 10.2875 16.4852C7.60083 14.8571 6.087 13.1784 5.4791 12.1462C4.87121 11.1141 5.59487 9.09274 6.36859 6.94069C6.43655 6.75167 6.56844 6.524 6.66166 6.3655C6.65553 6.38512 6.68698 6.37519 6.64575 6.42359C6.40995 7.43254 6.31691 11.2678 14.6714 14.4662C21.3551 17.0249 24.7025 17.0406 25.5408 16.7286L25.5611 17.9855Z" fill="url(#paint6_linear_705_21028)"/>
<path d="M25.9668 15.5844C25.9602 15.5669 25.9537 15.5505 25.9474 15.5353L25.9246 15.5785C25.9385 15.5754 25.9526 15.5776 25.9668 15.5844Z" fill="url(#paint7_linear_705_21028)"/>
<path d="M25.3992 16.5745L25.3993 16.5742C25.3992 16.5744 25.3992 16.5745 25.3992 16.5745Z" fill="url(#paint8_linear_705_21028)"/>
</g>
<g filter="url(#filter4_d_705_21028)">
<path d="M4.13239 13.1658C3.66846 14.479 3.23335 15.5597 2.99844 16.1432C2.93051 16.3119 2.87932 16.439 2.84901 16.5182C2.71392 16.8711 3.00334 17.9428 4.43049 19.0455C5.85765 20.1481 8.95387 22.2438 15.0147 23.9066C21.0756 25.5694 22.8043 24.0565 23.1546 23.5332C23.1998 23.4657 23.2583 23.3806 23.3258 23.2826L23.326 23.2823C23.782 22.6198 24.6457 21.3648 24.5503 20.9318C24.5214 20.9348 24.5006 20.937 24.4798 20.9396C24.4256 20.9463 24.3717 20.9561 24.1776 20.9915C24.1348 21.0234 24.1038 21.0674 24.0735 21.1104C24.0032 21.21 23.937 21.3039 23.7374 21.2275C23.588 21.1703 23.5618 21.0943 23.5382 21.0258C23.4999 20.9146 23.4685 20.8235 22.926 20.8663C22.0499 20.9355 17.9715 21.1443 12.8516 18.982C11.3212 18.3356 10.0637 17.6762 9.04156 17.0462C6.8124 15.586 6.11781 14.8048 5.25579 13.5959C4.65818 12.3692 5.20233 11.6207 5.25149 11.4923C5.25149 11.4923 4.98994 11.5026 4.60352 12.1275C4.21709 12.7523 4.13239 13.1658 4.13239 13.1658Z" fill="url(#paint9_linear_705_21028)"/>
</g>
<g filter="url(#filter5_d_705_21028)">
<path d="M4.3137 12.6862C4.19673 13.1948 4.4172 14.2758 6.08987 15.4908C8.40356 17.1714 13.4355 20.4844 19.919 20.8302C19.7797 20.7919 20.0606 20.8693 19.919 20.8302C18.1336 20.6477 15.6838 20.1667 12.8729 18.9818C7.73731 16.817 5.81152 14.5415 5.32656 13.6934C4.84161 12.8453 4.93871 11.8208 5.26284 11.4978C5.08414 11.5147 4.72571 11.7651 4.3137 12.6862Z" fill="url(#paint10_linear_705_21028)" shape-rendering="crispEdges"/>
</g>
<path fill-rule="evenodd" clip-rule="evenodd" d="M8.29918 20.5778C10.2641 21.7458 12.7681 22.7116 13.1744 21.3712C13.5807 20.0309 8.00855 18.2198 4.87433 17.9331L4.92469 17.9813C5.51309 18.5443 6.55398 19.5403 8.29918 20.5778ZM3.28685 16.5404L4.37623 17.374C4.41416 17.2749 5.26131 17.2962 6.24514 17.6283C5.61027 16.987 3.76265 16.4474 3.28685 16.5404ZM12.9636 22.3595C14.0253 22.7659 16.1835 23.2567 17.1022 22.9377C16.7637 22.1793 14.2716 20.8909 13.7494 20.6899C14.1039 21.7899 13.4493 22.1657 12.9636 22.3595Z" fill="url(#paint11_linear_705_21028)"/>
<path fill-rule="evenodd" clip-rule="evenodd" d="M10.8094 15.946C12.7194 17.2018 15.177 18.2801 15.6437 16.9596C16.1103 15.639 10.6259 13.5773 7.50793 13.1489L7.55605 13.1993C8.11833 13.7884 9.11302 14.8306 10.8094 15.946ZM5.98334 11.6854L7.03382 12.5675C7.07621 12.4703 7.92152 12.53 8.8893 12.9063C8.28414 12.2369 6.46286 11.6141 5.98334 11.6854ZM15.3875 17.9374C16.4297 18.3915 18.5635 18.9797 19.4957 18.7025C19.1919 17.9296 16.7608 16.5296 16.2482 16.3052C16.5525 17.4201 15.8815 17.7658 15.3875 17.9374Z" fill="url(#paint12_linear_705_21028)"/>
</g>
<g filter="url(#filter6_d_705_21028)">
<path d="M19.9477 10.5013C19.504 10.6961 18.7577 11.4728 19.3217 13.0205C19.4016 13.2396 19.5111 13.5419 19.6433 13.9068C20.6782 16.7629 23.1026 23.4543 23.5674 24.124C24.0917 24.8793 25.0602 26.1699 28.8659 25.6795C32.6717 25.1891 42.5047 22.1037 41.6547 18.678C40.264 14.8617 37.9325 6.98112 37.3661 5.06647C37.3126 4.88554 37.2748 4.75789 37.2551 4.69197C37.2398 4.64085 37.2245 4.58728 37.2087 4.53186C37.126 4.24226 37.0289 3.90226 36.8425 3.59891C36.8748 3.65143 36.9043 3.70505 36.9317 3.75932C36.9329 3.77697 36.9339 3.79474 36.9346 3.81264C36.9875 5.18792 32.6192 7.27796 29.9811 8.23934C27.3431 9.20072 23.5735 9.927 21.8904 10.0921C20.6104 10.2177 20.0601 10.4104 19.9219 10.5036C19.9315 10.5026 19.9401 10.5018 19.9477 10.5013Z" fill="url(#paint13_linear_705_21028)"/>
<path d="M19.9463 10.4946C20.0845 10.4016 20.6348 10.2088 21.914 10.0815C23.596 9.91413 27.364 9.18458 30.0017 8.2233C32.6395 7.26203 37.0083 5.17479 36.958 3.80685C36.9573 3.78905 36.9564 3.77137 36.9552 3.75382C36.6663 3.18075 36.119 2.68083 34.8459 2.79419C32.8683 2.97031 20.1779 5.31763 19.2393 8.48174C18.9488 9.46107 18.9418 10.125 19.0017 10.6763C19.0069 10.6982 19.012 10.7197 19.0169 10.7412C19.4765 10.5737 19.8116 10.5091 19.9463 10.4946Z" fill="url(#paint14_linear_705_21028)"/>
<g filter="url(#filter7_i_705_21028)">
<path d="M19.9463 10.4946C20.0845 10.4016 20.6348 10.2088 21.914 10.0815C23.596 9.91413 27.364 9.18458 30.0017 8.2233C32.6395 7.26203 37.0083 5.17479 36.958 3.80685C36.9573 3.78905 36.9564 3.77137 36.9552 3.75382C36.6663 3.18075 36.119 2.68083 34.8459 2.79419C32.8683 2.97031 20.1779 5.31763 19.2393 8.48174C18.9488 9.46107 18.9418 10.125 19.0017 10.6763C19.0069 10.6982 19.012 10.7197 19.0169 10.7412C19.4765 10.5737 19.8116 10.5091 19.9463 10.4946Z" fill="url(#paint15_linear_705_21028)"/>
</g>
<path d="M19.694 10.5423C19.9441 10.1825 20.5402 9.74632 21.7579 9.59206C21.9157 9.57209 22.08 9.55167 22.2504 9.53051C24.3426 9.27063 27.3421 8.89804 30.1326 7.83505C33.1503 6.6855 36.8551 4.68788 36.0148 3.74893C35.3865 3.04678 33.7748 3.00934 31.8752 3.25827C33.2239 2.98673 34.2824 2.83722 34.8187 2.79025C36.0926 2.67869 36.6413 3.1823 36.9315 3.75895C36.9327 3.7766 36.9337 3.79437 36.9344 3.81227C36.9873 5.18756 32.619 7.27759 29.9809 8.23897C27.3429 9.20035 23.5733 9.92664 21.8902 10.0917C20.6102 10.2173 20.0599 10.41 19.9217 10.5032C19.8719 10.5085 19.7948 10.5207 19.694 10.5423Z" fill="url(#paint16_linear_705_21028)"/>
<g filter="url(#filter8_dii_705_21028)">
<ellipse cx="21.6597" cy="12.8448" rx="0.705711" ry="0.906948" transform="rotate(-51.7301 21.6597 12.8448)" fill="#FF5D39"/>
</g>
<path fill-rule="evenodd" clip-rule="evenodd" d="M19.9745 18.5808C19.9747 18.5552 19.9758 18.5311 19.9777 18.5087C19.9799 18.5107 19.9827 18.5135 19.9862 18.517C20.0226 18.5529 20.1316 18.6605 20.3857 18.8082C20.645 18.959 20.9405 19.0173 21.2255 19.0736C21.3573 19.0996 21.4867 19.1251 21.6093 19.1592L22.0517 20.3731C21.7613 20.3187 21.5385 20.2529 21.3833 20.187C20.5439 19.8306 19.9998 19.052 19.9745 18.5808Z" fill="#221B24"/>
<path d="M24.1956 24.4579C22.8362 20.5271 20.1006 13.6228 19.9296 12.5512C19.8469 12.0331 19.8463 11.1183 21.2234 10.9823C22.6004 10.8463 25.0433 10.7242 29.2677 9.36755C33.4921 8.01095 36.6796 6.11773 37.3098 4.53462" stroke="url(#paint17_linear_705_21028)" stroke-width="0.132565" stroke-dasharray="0.44 0.44"/>
<g filter="url(#filter9_d_705_21028)">
<path d="M39.6467 9.5349L39.5957 10.1515L38.7553 9.21172C38.3284 9.99864 35.7957 12.1844 29.0797 14.6319C20.6847 17.6913 18.2354 14.7957 17.7508 13.8758C17.7416 13.8584 17.7329 13.8403 17.7247 13.8214C17.2537 12.5118 17.995 10.4473 19.9336 10.4386C20.0297 10.5199 19.5381 10.5827 19.3029 11.1669C18.8401 12.0832 19.5059 14.1832 20.8577 14.8868C22.2095 15.5904 25.5629 15.3652 31.057 13.363C35.4523 11.7612 37.5805 9.54018 37.9279 9.26402C38.2754 8.98785 38.5474 9.18779 38.5474 9.18779C38.5474 9.18779 38.3829 8.59978 38.2826 8.18775C38.1822 7.77573 39.2222 8.44345 39.4467 9.05945C39.4979 9.15519 39.5668 9.32177 39.6467 9.5349Z" fill="url(#paint18_linear_705_21028)" shape-rendering="crispEdges"/>
</g>
<g filter="url(#filter10_d_705_21028)">
<path d="M39.5788 10.1146L39.6308 9.4998C39.9397 10.3237 40.4122 11.8461 40.6535 12.6532L40.4413 13.0285C40.3774 12.8531 40.2255 12.7098 40.0214 12.8338C39.8943 12.9111 39.882 12.985 39.8609 13.1128C39.848 13.1901 39.8319 13.2871 39.7851 13.4166C39.661 13.7598 39.0143 14.2835 36.8763 15.4203C32.1994 17.7703 30.1591 18.4642 27.063 18.9965C23.9669 19.5289 21.7232 19.2539 20.5875 18.8732C19.4517 18.4925 18.6728 16.4918 17.8459 14.3596C17.7732 14.1724 17.7235 13.914 17.69 13.7332C17.6982 13.752 17.7155 13.7239 17.7161 13.7875C18.1996 14.7039 20.6441 17.6607 29.0491 14.5976C35.7732 12.1471 38.311 9.96415 38.7393 9.17896L39.5788 10.1146Z" fill="url(#paint19_linear_705_21028)"/>
<path d="M38.3107 8.03568C38.2943 8.02687 38.2786 8.01873 38.2639 8.01128L38.2751 8.05891C38.2835 8.04751 38.2955 8.03985 38.3107 8.03568Z" fill="url(#paint20_linear_705_21028)"/>
<path d="M38.5313 9.15541L38.5313 9.15513C38.5313 9.15533 38.5313 9.15541 38.5313 9.15541Z" fill="url(#paint21_linear_705_21028)"/>
</g>
<g filter="url(#filter11_d_705_21028)">
<path d="M20.2407 20.5272C20.7514 21.8229 21.1315 22.9241 21.3367 23.5187C21.3961 23.6906 21.4408 23.8202 21.4698 23.8998C21.5992 24.2549 22.5204 24.8743 24.321 24.7711C26.1215 24.6679 29.8334 24.22 35.4998 21.5015C41.1662 18.7829 41.4795 16.5071 41.4009 15.8823C41.3907 15.8017 41.3791 15.6989 41.3658 15.5805C41.2757 14.7814 41.105 13.2674 40.749 13.0031L40.749 13.0031C40.7291 13.0243 40.7148 13.0396 40.7008 13.0552C40.6643 13.0958 40.6301 13.1385 40.5068 13.2923L40.5067 13.2925C40.4953 13.3446 40.5008 13.3982 40.506 13.4505L40.506 13.4505C40.5183 13.5719 40.5299 13.6862 40.3291 13.7594C40.1788 13.8141 40.1091 13.7739 40.0464 13.7377C39.9446 13.6788 39.8612 13.6306 39.4797 14.0186C38.8635 14.6454 35.9211 17.4771 30.6375 19.2015C29.0582 19.717 27.6765 20.0437 26.4916 20.2382C23.8511 20.5972 22.8144 20.4629 21.3709 20.1153C20.1154 19.581 20.0354 18.659 19.9884 18.5299C19.9884 18.5299 19.7976 18.7091 19.9156 19.4343C20.0335 20.1595 20.2407 20.5272 20.2407 20.5272Z" fill="url(#paint22_linear_705_21028)"/>
</g>
<g filter="url(#filter12_d_705_21028)">
<path d="M20.0623 20.0443C20.3074 20.5049 21.1827 21.1766 23.2423 20.9972C26.0912 20.7491 32.0628 19.9511 37.1848 15.9611C37.0544 16.0235 37.3173 15.8978 37.1848 15.9611C35.717 16.994 33.552 18.237 30.6527 19.1855C25.3558 20.9183 22.4097 20.463 21.4875 20.1406C20.5652 19.8183 19.9668 18.981 19.9997 18.5246C19.8759 18.6546 19.7694 19.0786 20.0623 20.0443Z" fill="url(#paint23_linear_705_21028)" shape-rendering="crispEdges"/>
</g>
<path fill-rule="evenodd" clip-rule="evenodd" d="M28.2445 23.3929C30.4939 22.9865 33.0178 22.0739 32.4457 20.7955C31.8736 19.517 26.4789 21.8032 23.9245 23.6418L23.9941 23.6451C24.8076 23.6844 26.2466 23.754 28.2445 23.3929ZM21.8101 23.632L23.1792 23.5471C23.1429 23.4475 23.7965 22.9081 24.7571 22.5137C23.8572 22.4458 22.1084 23.2498 21.8101 23.632ZM32.936 21.6799C34.0042 21.2906 35.9555 20.2461 36.44 19.4029C35.6871 19.0522 32.9608 19.7134 32.4347 19.9041C33.4236 20.5021 33.1757 21.2152 32.936 21.6799Z" fill="url(#paint24_linear_705_21028)"/>
<path fill-rule="evenodd" clip-rule="evenodd" d="M27.1041 18.2482C29.3696 17.9441 31.9322 17.1468 31.4186 15.8437C30.9051 14.5407 25.4124 16.58 22.7773 18.301L22.8467 18.3075C23.6575 18.3837 25.0918 18.5183 27.1041 18.2482ZM20.6694 18.1952L22.041 18.1725C22.0092 18.0713 22.6866 17.5621 23.664 17.2116C22.7682 17.103 20.9847 17.827 20.6694 18.1952ZM31.8704 16.7494C32.9551 16.409 34.9518 15.454 35.4739 14.6335C34.7377 14.2491 31.9842 14.7861 31.4501 14.9527C32.4108 15.595 32.1309 16.296 31.8704 16.7494Z" fill="url(#paint25_linear_705_21028)"/>
</g>
<defs>
<filter id="filter0_i_705_21028" x="9.62225" y="1.60917" width="21.2804" height="10.2937" filterUnits="userSpaceOnUse" color-interpolation-filters="sRGB">
<feFlood flood-opacity="0" result="BackgroundImageFix"/>
<feBlend mode="normal" in="SourceGraphic" in2="BackgroundImageFix" result="shape"/>
<feColorMatrix in="SourceAlpha" type="matrix" values="0 0 0 0 0 0 0 0 0 0 0 0 0 0 0 0 0 0 127 0" result="hardAlpha"/>
<feOffset dx="5.12583" dy="-1.5024"/>
<feGaussianBlur stdDeviation="1.54659"/>
<feComposite in2="hardAlpha" operator="arithmetic" k2="-1" k3="1"/>
<feColorMatrix type="matrix" values="0 0 0 0 0 0 0 0 0 0 0 0 0 0 0 0 0 0 0.34 0"/>
<feBlend mode="normal" in2="shape" result="effect1_innerShadow_705_21028"/>
</filter>
<filter id="filter1_dii_705_21028" x="8.82064" y="7.04176" width="2.84176" height="3.21578" filterUnits="userSpaceOnUse" color-interpolation-filters="sRGB">
<feFlood flood-opacity="0" result="BackgroundImageFix"/>
<feColorMatrix in="SourceAlpha" type="matrix" values="0 0 0 0 0 0 0 0 0 0 0 0 0 0 0 0 0 0 127 0" result="hardAlpha"/>
<feOffset dy="0.353506"/>
<feGaussianBlur stdDeviation="0.353506"/>
<feComposite in2="hardAlpha" operator="out"/>
<feColorMatrix type="matrix" values="0 0 0 0 0.104167 0 0 0 0 0.0551215 0 0 0 0 0.0551215 0 0 0 0.18 0"/>
<feBlend mode="normal" in2="BackgroundImageFix" result="effect1_dropShadow_705_21028"/>
<feBlend mode="normal" in="SourceGraphic" in2="effect1_dropShadow_705_21028" result="shape"/>
<feColorMatrix in="SourceAlpha" type="matrix" values="0 0 0 0 0 0 0 0 0 0 0 0 0 0 0 0 0 0 127 0" result="hardAlpha"/>
<feOffset dx="-0.176753" dy="0.265129"/>
<feGaussianBlur stdDeviation="0.220941"/>
<feComposite in2="hardAlpha" operator="arithmetic" k2="-1" k3="1"/>
<feColorMatrix type="matrix" values="0 0 0 0 1 0 0 0 0 1 0 0 0 0 1 0 0 0 0.44 0"/>
<feBlend mode="normal" in2="shape" result="effect2_innerShadow_705_21028"/>
<feColorMatrix in="SourceAlpha" type="matrix" values="0 0 0 0 0 0 0 0 0 0 0 0 0 0 0 0 0 0 127 0" result="hardAlpha"/>
<feOffset dx="0.0883765" dy="-0.353506"/>
<feGaussianBlur stdDeviation="0.176753"/>
<feComposite in2="hardAlpha" operator="arithmetic" k2="-1" k3="1"/>
<feColorMatrix type="matrix" values="0 0 0 0 0.15 0 0 0 0 0.08375 0 0 0 0 0.08375 0 0 0 0.46 0"/>
<feBlend mode="normal" in2="effect2_innerShadow_705_21028" result="effect3_innerShadow_705_21028"/>
</filter>
<filter id="filter2_d_705_21028" x="4.72974" y="1.86483" width="24.9865" height="18.5433" filterUnits="userSpaceOnUse" color-interpolation-filters="sRGB">
<feFlood flood-opacity="0" result="BackgroundImageFix"/>
<feColorMatrix in="SourceAlpha" type="matrix" values="0 0 0 0 0 0 0 0 0 0 0 0 0 0 0 0 0 0 127 0" result="hardAlpha"/>
<feOffset dx="0.83459" dy="-0.265129"/>
<feGaussianBlur stdDeviation="1.32565"/>
<feComposite in2="hardAlpha" operator="out"/>
<feColorMatrix type="matrix" values="0 0 0 0 0.0416667 0 0 0 0 0.0196181 0 0 0 0 0.0223741 0 0 0 1 0"/>
<feBlend mode="normal" in2="BackgroundImageFix" result="effect1_dropShadow_705_21028"/>
<feBlend mode="normal" in="SourceGraphic" in2="effect1_dropShadow_705_21028" result="shape"/>
</filter>
<filter id="filter3_d_705_21028" x="3.13141" y="4.15607" width="24.2861" height="17.9206" filterUnits="userSpaceOnUse" color-interpolation-filters="sRGB">
<feFlood flood-opacity="0" result="BackgroundImageFix"/>
<feColorMatrix in="SourceAlpha" type="matrix" values="0 0 0 0 0 0 0 0 0 0 0 0 0 0 0 0 0 0 127 0" result="hardAlpha"/>
<feOffset dx="-0.353506" dy="-0.441882"/>
<feGaussianBlur stdDeviation="0.883765"/>
<feComposite in2="hardAlpha" operator="out"/>
<feColorMatrix type="matrix" values="0 0 0 0 0 0 0 0 0 0 0 0 0 0 0 0 0 0 0.4 0"/>
<feBlend mode="normal" in2="BackgroundImageFix" result="effect1_dropShadow_705_21028"/>
<feBlend mode="normal" in="SourceGraphic" in2="effect1_dropShadow_705_21028" result="shape"/>
</filter>
<filter id="filter4_d_705_21028" x="0.698179" y="9.28278" width="25.2735" height="16.7079" filterUnits="userSpaceOnUse" color-interpolation-filters="sRGB">
<feFlood flood-opacity="0" result="BackgroundImageFix"/>
<feColorMatrix in="SourceAlpha" type="matrix" values="0 0 0 0 0 0 0 0 0 0 0 0 0 0 0 0 0 0 127 0" result="hardAlpha"/>
<feOffset dx="-0.353506" dy="-0.441882"/>
<feGaussianBlur stdDeviation="0.883765"/>
<feComposite in2="hardAlpha" operator="out"/>
<feColorMatrix type="matrix" values="0 0 0 0 0 0 0 0 0 0 0 0 0 0 0 0 0 0 0.4 0"/>
<feBlend mode="normal" in2="BackgroundImageFix" result="effect1_dropShadow_705_21028"/>
<feBlend mode="normal" in="SourceGraphic" in2="effect1_dropShadow_705_21028" result="shape"/>
</filter>
<filter id="filter5_d_705_21028" x="1.98969" y="8.58138" width="20.9753" height="14.6463" filterUnits="userSpaceOnUse" color-interpolation-filters="sRGB">
<feFlood flood-opacity="0" result="BackgroundImageFix"/>
<feColorMatrix in="SourceAlpha" type="matrix" values="0 0 0 0 0 0 0 0 0 0 0 0 0 0 0 0 0 0 127 0" result="hardAlpha"/>
<feOffset dx="0.353506" dy="-0.265129"/>
<feGaussianBlur stdDeviation="1.32565"/>
<feComposite in2="hardAlpha" operator="out"/>
<feColorMatrix type="matrix" values="0 0 0 0 0.0416667 0 0 0 0 0.0196181 0 0 0 0 0.0223741 0 0 0 1 0"/>
<feBlend mode="normal" in2="BackgroundImageFix" result="effect1_dropShadow_705_21028"/>
<feBlend mode="normal" in="SourceGraphic" in2="effect1_dropShadow_705_21028" result="shape"/>
</filter>
<filter id="filter6_d_705_21028" x="11.6618" y="1.52277" width="31.7974" height="30.6914" filterUnits="userSpaceOnUse" color-interpolation-filters="sRGB">
<feFlood flood-opacity="0" result="BackgroundImageFix"/>
<feColorMatrix in="SourceAlpha" type="matrix" values="0 0 0 0 0 0 0 0 0 0 0 0 0 0 0 0 0 0 127 0" result="hardAlpha"/>
<feOffset dx="-2.08647" dy="2.58723"/>
<feGaussianBlur stdDeviation="1.91956"/>
<feColorMatrix type="matrix" values="0 0 0 0 0 0 0 0 0 0 0 0 0 0 0 0 0 0 0.51 0"/>
<feBlend mode="normal" in2="BackgroundImageFix" result="effect1_dropShadow_705_21028"/>
<feBlend mode="normal" in="SourceGraphic" in2="effect1_dropShadow_705_21028" result="shape"/>
</filter>
<filter id="filter7_i_705_21028" x="18.9717" y="1.27568" width="21.0799" height="9.46553" filterUnits="userSpaceOnUse" color-interpolation-filters="sRGB">
<feFlood flood-opacity="0" result="BackgroundImageFix"/>
<feBlend mode="normal" in="SourceGraphic" in2="BackgroundImageFix" result="shape"/>
<feColorMatrix in="SourceAlpha" type="matrix" values="0 0 0 0 0 0 0 0 0 0 0 0 0 0 0 0 0 0 127 0" result="hardAlpha"/>
<feOffset dx="5.12583" dy="-1.5024"/>
<feGaussianBlur stdDeviation="1.54659"/>
<feComposite in2="hardAlpha" operator="arithmetic" k2="-1" k3="1"/>
<feColorMatrix type="matrix" values="0 0 0 0 0 0 0 0 0 0 0 0 0 0 0 0 0 0 0.34 0"/>
<feBlend mode="normal" in2="shape" result="effect1_innerShadow_705_21028"/>
</filter>
<filter id="filter8_dii_705_21028" x="20.1171" y="11.7024" width="3.08523" height="2.9919" filterUnits="userSpaceOnUse" color-interpolation-filters="sRGB">
<feFlood flood-opacity="0" result="BackgroundImageFix"/>
<feColorMatrix in="SourceAlpha" type="matrix" values="0 0 0 0 0 0 0 0 0 0 0 0 0 0 0 0 0 0 127 0" result="hardAlpha"/>
<feOffset dy="0.353506"/>
<feGaussianBlur stdDeviation="0.353506"/>
<feComposite in2="hardAlpha" operator="out"/>
<feColorMatrix type="matrix" values="0 0 0 0 0.104167 0 0 0 0 0.0551215 0 0 0 0 0.0551215 0 0 0 0.18 0"/>
<feBlend mode="normal" in2="BackgroundImageFix" result="effect1_dropShadow_705_21028"/>
<feBlend mode="normal" in="SourceGraphic" in2="effect1_dropShadow_705_21028" result="shape"/>
<feColorMatrix in="SourceAlpha" type="matrix" values="0 0 0 0 0 0 0 0 0 0 0 0 0 0 0 0 0 0 127 0" result="hardAlpha"/>
<feOffset dx="-0.176753" dy="0.265129"/>
<feGaussianBlur stdDeviation="0.220941"/>
<feComposite in2="hardAlpha" operator="arithmetic" k2="-1" k3="1"/>
<feColorMatrix type="matrix" values="0 0 0 0 1 0 0 0 0 1 0 0 0 0 1 0 0 0 0.44 0"/>
<feBlend mode="normal" in2="shape" result="effect2_innerShadow_705_21028"/>
<feColorMatrix in="SourceAlpha" type="matrix" values="0 0 0 0 0 0 0 0 0 0 0 0 0 0 0 0 0 0 127 0" result="hardAlpha"/>
<feOffset dx="0.0883765" dy="-0.353506"/>
<feGaussianBlur stdDeviation="0.176753"/>
<feComposite in2="hardAlpha" operator="arithmetic" k2="-1" k3="1"/>
<feColorMatrix type="matrix" values="0 0 0 0 0.15 0 0 0 0 0.08375 0 0 0 0 0.08375 0 0 0 0.46 0"/>
<feBlend mode="normal" in2="effect2_innerShadow_705_21028" result="effect3_innerShadow_705_21028"/>
</filter>
<filter id="filter9_d_705_21028" x="15.7706" y="5.14412" width="27.362" height="13.2423" filterUnits="userSpaceOnUse" color-interpolation-filters="sRGB">
<feFlood flood-opacity="0" result="BackgroundImageFix"/>
<feColorMatrix in="SourceAlpha" type="matrix" values="0 0 0 0 0 0 0 0 0 0 0 0 0 0 0 0 0 0 127 0" result="hardAlpha"/>
<feOffset dx="0.83459" dy="-0.265129"/>
<feGaussianBlur stdDeviation="1.32565"/>
<feComposite in2="hardAlpha" operator="out"/>
<feColorMatrix type="matrix" values="0 0 0 0 0.0416667 0 0 0 0 0.0196181 0 0 0 0 0.0223741 0 0 0 1 0"/>
<feBlend mode="normal" in2="BackgroundImageFix" result="effect1_dropShadow_705_21028"/>
<feBlend mode="normal" in="SourceGraphic" in2="effect1_dropShadow_705_21028" result="shape"/>
</filter>
<filter id="filter10_d_705_21028" x="15.569" y="5.80182" width="26.4985" height="14.8166" filterUnits="userSpaceOnUse" color-interpolation-filters="sRGB">
<feFlood flood-opacity="0" result="BackgroundImageFix"/>
<feColorMatrix in="SourceAlpha" type="matrix" values="0 0 0 0 0 0 0 0 0 0 0 0 0 0 0 0 0 0 127 0" result="hardAlpha"/>
<feOffset dx="-0.353506" dy="-0.441882"/>
<feGaussianBlur stdDeviation="0.883765"/>
<feComposite in2="hardAlpha" operator="out"/>
<feColorMatrix type="matrix" values="0 0 0 0 0 0 0 0 0 0 0 0 0 0 0 0 0 0 0.4 0"/>
<feBlend mode="normal" in2="BackgroundImageFix" result="effect1_dropShadow_705_21028"/>
<feBlend mode="normal" in="SourceGraphic" in2="effect1_dropShadow_705_21028" result="shape"/>
</filter>
<filter id="filter11_d_705_21028" x="17.756" y="10.7938" width="25.0679" height="15.3144" filterUnits="userSpaceOnUse" color-interpolation-filters="sRGB">
<feFlood flood-opacity="0" result="BackgroundImageFix"/>
<feColorMatrix in="SourceAlpha" type="matrix" values="0 0 0 0 0 0 0 0 0 0 0 0 0 0 0 0 0 0 127 0" result="hardAlpha"/>
<feOffset dx="-0.353506" dy="-0.441882"/>
<feGaussianBlur stdDeviation="0.883765"/>
<feComposite in2="hardAlpha" operator="out"/>
<feColorMatrix type="matrix" values="0 0 0 0 0 0 0 0 0 0 0 0 0 0 0 0 0 0 0.4 0"/>
<feBlend mode="normal" in2="BackgroundImageFix" result="effect1_dropShadow_705_21028"/>
<feBlend mode="normal" in="SourceGraphic" in2="effect1_dropShadow_705_21028" result="shape"/>
</filter>
<filter id="filter12_d_705_21028" x="17.5765" y="13.0262" width="22.6515" height="10.3868" filterUnits="userSpaceOnUse" color-interpolation-filters="sRGB">
<feFlood flood-opacity="0" result="BackgroundImageFix"/>
<feColorMatrix in="SourceAlpha" type="matrix" values="0 0 0 0 0 0 0 0 0 0 0 0 0 0 0 0 0 0 127 0" result="hardAlpha"/>
<feOffset dx="0.353506" dy="-0.265129"/>
<feGaussianBlur stdDeviation="1.32565"/>
<feComposite in2="hardAlpha" operator="out"/>
<feColorMatrix type="matrix" values="0 0 0 0 0.0416667 0 0 0 0 0.0196181 0 0 0 0 0.0223741 0 0 0 1 0"/>
<feBlend mode="normal" in2="BackgroundImageFix" result="effect1_dropShadow_705_21028"/>
<feBlend mode="normal" in="SourceGraphic" in2="effect1_dropShadow_705_21028" result="shape"/>
</filter>
<linearGradient id="paint0_linear_705_21028" x1="30.2458" y1="15.4709" x2="21.197" y2="7.05423" gradientUnits="userSpaceOnUse">
<stop stop-color="#FFED52"/>
<stop offset="0.302083" stop-color="#FFB23F"/>
<stop offset="0.560052" stop-color="#FF5D39"/>
<stop offset="0.990575" stop-color="#522929"/>
</linearGradient>
<linearGradient id="paint1_linear_705_21028" x1="19.8062" y1="5.28893" x2="18.1105" y2="9.71832" gradientUnits="userSpaceOnUse">
<stop stop-color="#4E2928"/>
<stop offset="1" stop-color="#151723"/>
</linearGradient>
<linearGradient id="paint2_linear_705_21028" x1="19.8062" y1="5.28893" x2="18.1105" y2="9.71832" gradientUnits="userSpaceOnUse">
<stop stop-color="#4E2928"/>
<stop offset="1" stop-color="#151723"/>
</linearGradient>
<linearGradient id="paint3_linear_705_21028" x1="26.139" y1="7.78557" x2="10.7309" y2="3.08719" gradientUnits="userSpaceOnUse">
<stop stop-color="white"/>
<stop offset="1" stop-color="white" stop-opacity="0"/>
</linearGradient>
<linearGradient id="paint4_linear_705_21028" x1="18.5555" y1="8.85762" x2="13.4684" y2="22.1458" gradientUnits="userSpaceOnUse">
<stop stop-color="#FF5D39"/>
<stop offset="1" stop-color="#FF5D39" stop-opacity="0"/>
</linearGradient>
<linearGradient id="paint5_linear_705_21028" x1="13.0455" y1="7.55319" x2="6.10483" y2="6.03352" gradientUnits="userSpaceOnUse">
<stop stop-color="white"/>
<stop offset="1" stop-color="white" stop-opacity="0"/>
</linearGradient>
<linearGradient id="paint6_linear_705_21028" x1="16.9329" y1="10.2976" x2="23.5541" y2="22.0327" gradientUnits="userSpaceOnUse">
<stop stop-color="#FF743B"/>
<stop offset="1" stop-color="#FFED52"/>
</linearGradient>
<linearGradient id="paint7_linear_705_21028" x1="16.9329" y1="10.2976" x2="23.5541" y2="22.0327" gradientUnits="userSpaceOnUse">
<stop stop-color="#FF743B"/>
<stop offset="1" stop-color="#FFED52"/>
</linearGradient>
<linearGradient id="paint8_linear_705_21028" x1="16.9329" y1="10.2976" x2="23.5541" y2="22.0327" gradientUnits="userSpaceOnUse">
<stop stop-color="#FF743B"/>
<stop offset="1" stop-color="#FFED52"/>
</linearGradient>
<linearGradient id="paint9_linear_705_21028" x1="13.0691" y1="16.546" x2="17.6413" y2="24.4053" gradientUnits="userSpaceOnUse">
<stop stop-color="#FF743B"/>
<stop offset="1" stop-color="#FFED52"/>
</linearGradient>
<linearGradient id="paint10_linear_705_21028" x1="9.27708" y1="13.9107" x2="3.75757" y2="12.9246" gradientUnits="userSpaceOnUse">
<stop stop-color="white"/>
<stop offset="1" stop-color="white" stop-opacity="0"/>
</linearGradient>
<linearGradient id="paint11_linear_705_21028" x1="4.07535" y1="16.9444" x2="17.5182" y2="22.2655" gradientUnits="userSpaceOnUse">
<stop stop-color="white"/>
<stop offset="1" stop-color="white" stop-opacity="0"/>
</linearGradient>
<linearGradient id="paint12_linear_705_21028" x1="6.7528" y1="12.1247" x2="19.9418" y2="18.0499" gradientUnits="userSpaceOnUse">
<stop stop-color="white"/>
<stop offset="1" stop-color="white" stop-opacity="0"/>
</linearGradient>
<linearGradient id="paint13_linear_705_21028" x1="41.4676" y1="5.1454" x2="29.1168" y2="4.72363" gradientUnits="userSpaceOnUse">
<stop stop-color="#FFED52"/>
<stop offset="0.302083" stop-color="#FFB23F"/>
<stop offset="0.560052" stop-color="#FF5D39"/>
<stop offset="0.990575" stop-color="#522929"/>
</linearGradient>
<linearGradient id="paint14_linear_705_21028" x1="26.9123" y1="4.30118" x2="28.5363" y2="8.75736" gradientUnits="userSpaceOnUse">
<stop stop-color="#4E2928"/>
<stop offset="1" stop-color="#151723"/>
</linearGradient>
<linearGradient id="paint15_linear_705_21028" x1="26.9123" y1="4.30118" x2="28.5363" y2="8.75736" gradientUnits="userSpaceOnUse">
<stop stop-color="#4E2928"/>
<stop offset="1" stop-color="#151723"/>
</linearGradient>
<linearGradient id="paint16_linear_705_21028" x1="33.3272" y1="2.03582" x2="18.613" y2="8.5912" gradientUnits="userSpaceOnUse">
<stop stop-color="white"/>
<stop offset="1" stop-color="white" stop-opacity="0"/>
</linearGradient>
<linearGradient id="paint17_linear_705_21028" x1="28.3047" y1="7.81638" x2="33.1766" y2="21.1849" gradientUnits="userSpaceOnUse">
<stop stop-color="#FF5D39"/>
<stop offset="1" stop-color="#FF5D39" stop-opacity="0"/>
</linearGradient>
<linearGradient id="paint18_linear_705_21028" x1="23.2913" y1="10.4452" x2="17.0544" y2="13.8487" gradientUnits="userSpaceOnUse">
<stop stop-color="white"/>
<stop offset="1" stop-color="white" stop-opacity="0"/>
</linearGradient>
<linearGradient id="paint19_linear_705_21028" x1="28.0234" y1="9.9674" x2="40.7171" y2="14.4863" gradientUnits="userSpaceOnUse">
<stop stop-color="#FF743B"/>
<stop offset="1" stop-color="#FFED52"/>
</linearGradient>
<linearGradient id="paint20_linear_705_21028" x1="28.0234" y1="9.9674" x2="40.7171" y2="14.4863" gradientUnits="userSpaceOnUse">
<stop stop-color="#FF743B"/>
<stop offset="1" stop-color="#FFED52"/>
</linearGradient>
<linearGradient id="paint21_linear_705_21028" x1="28.0234" y1="9.9674" x2="40.7171" y2="14.4863" gradientUnits="userSpaceOnUse">
<stop stop-color="#FF743B"/>
<stop offset="1" stop-color="#FFED52"/>
</linearGradient>
<linearGradient id="paint22_linear_705_21028" x1="29.2045" y1="17.2197" x2="37.81" y2="20.1558" gradientUnits="userSpaceOnUse">
<stop stop-color="#FF743B"/>
<stop offset="1" stop-color="#FFED52"/>
</linearGradient>
<linearGradient id="paint23_linear_705_21028" x1="24.6127" y1="17.7144" x2="19.7987" y2="20.5889" gradientUnits="userSpaceOnUse">
<stop stop-color="white"/>
<stop offset="1" stop-color="white" stop-opacity="0"/>
</linearGradient>
<linearGradient id="paint24_linear_705_21028" x1="22.6708" y1="23.42" x2="36.3132" y2="18.6221" gradientUnits="userSpaceOnUse">
<stop stop-color="white"/>
<stop offset="1" stop-color="white" stop-opacity="0"/>
</linearGradient>
<linearGradient id="paint25_linear_705_21028" x1="21.5385" y1="18.0224" x2="35.3827" y2="13.848" gradientUnits="userSpaceOnUse">
<stop stop-color="white"/>
<stop offset="1" stop-color="white" stop-opacity="0"/>
</linearGradient>
</defs>
</svg>