<svg width="10" height="11" viewBox="0 0 10 11" fill="none" xmlns="http://www.w3.org/2000/svg">
<path d="M4.58334 0.916504C3.67684 0.916504 2.7907 1.18531 2.03697 1.68893C1.28325 2.19256 0.695789 2.90838 0.348888 3.74587C0.0019859 4.58337 -0.0887794 5.50492 0.0880695 6.394C0.264918 7.28308 0.701439 8.09975 1.34243 8.74074C1.98342 9.38173 2.80009 9.81825 3.68917 9.9951C4.57825 10.172 5.49981 10.0812 6.3373 9.73429C7.1748 9.38738 7.89061 8.79993 8.39424 8.0462C8.89786 7.29248 9.16667 6.40634 9.16667 5.49984C9.16524 4.2847 8.68189 3.11975 7.82266 2.26051C6.96343 1.40128 5.79847 0.917937 4.58334 0.916504ZM4.58334 9.24984C3.84166 9.24984 3.11663 9.0299 2.49995 8.61785C1.88326 8.20579 1.40262 7.62012 1.11879 6.9349C0.834958 6.24968 0.760696 5.49568 0.905391 4.76825C1.05009 4.04082 1.40724 3.37263 1.93168 2.84819C2.45613 2.32374 3.12432 1.96659 3.85175 1.82189C4.57918 1.6772 5.33318 1.75146 6.0184 2.03529C6.70362 2.31912 7.28929 2.79976 7.70135 3.41645C8.1134 4.03313 8.33334 4.75816 8.33334 5.49984C8.33212 6.49403 7.93665 7.44715 7.23365 8.15015C6.53065 8.85315 5.57752 9.24862 4.58334 9.24984Z" fill="#FFB23F"/>
<path d="M4.80197 5.39759V3.36404C4.80197 3.26749 4.75972 3.1749 4.68453 3.10663C4.60933 3.03835 4.50733 3 4.40099 3C4.29464 3 4.19265 3.03835 4.11745 3.10663C4.04225 3.1749 4 3.26749 4 3.36404V5.5483C4.00002 5.64484 4.04228 5.73742 4.11749 5.80568L5.32045 6.89781C5.39607 6.96412 5.49736 7.00082 5.6025 6.99999C5.70764 6.99916 5.80821 6.96087 5.88255 6.89337C5.9569 6.82588 5.99907 6.73457 5.99998 6.63912C6.0009 6.54367 5.96048 6.45171 5.88744 6.38305L4.80197 5.39759Z" fill="#FFB23F"/>
</svg>