<svg width="153" height="168" viewBox="0 0 153 168" fill="none" xmlns="http://www.w3.org/2000/svg">
<g filter="url(#filter0_b_705_15106)">
<path fill-rule="evenodd" clip-rule="evenodd" d="M74.4303 100.603C80.9214 100.603 87.0498 99.0503 92.4647 96.2965C97.4054 93.923 101.762 90.6052 105.068 86.4814C116.625 74.9246 120.365 58.5115 116.29 43.8108C116.269 43.7925 116.248 43.7743 116.227 43.7563C111.003 53.4218 105.56 52.8994 103.819 51.5932C103.194 51.1246 102.721 50.6814 102.357 50.3267C101.28 49.1012 99.701 48.3278 97.9412 48.3278C95.8319 48.3278 93.9822 49.4388 92.9452 51.1076C92.3231 51.9139 91.5017 53.0733 90.4912 54.4997C84.0423 63.6023 68.9597 83.5649 49.7379 92.0294L49.6473 91.9575C56.4496 97.3692 65.0623 100.603 74.4303 100.603ZM115.802 42.1757L115.809 42.1972C113.754 35.7613 110.174 29.7069 105.067 24.6005C103.069 22.6022 101.03 20.7335 98.9866 18.9913C99.0192 19.0674 99.0511 19.1434 99.0823 19.2191C100.134 20.7556 100.749 22.6145 100.749 24.6171C100.749 29.9011 96.4658 34.1847 91.1817 34.1847C85.8977 34.1847 81.6142 29.9011 81.6142 24.6171C81.6142 23.605 81.7713 22.6296 82.0625 21.714C82.1216 21.3585 82.1898 20.9878 82.2672 20.6007C83.4164 14.8546 82.435 6.67464 67.988 0.0906417C67.9587 0.0699302 67.9292 0.0492841 67.8995 0.0286997C67.9235 0.0463666 67.9475 0.0645083 67.9715 0.0831283C67.9105 0.0553725 67.8493 0.0276629 67.7878 0C69.0437 1.25596 69.7029 2.57791 69.8735 3.97237C69.9688 5.23835 69.7354 6.76675 68.9514 8.54597C68.1773 10.2015 66.9746 11.9473 65.4746 13.7912C65.209 14.0972 64.929 14.4078 64.6341 14.723C60.5564 19.0819 56.4787 22.8959 52.8442 26.2953C50.6823 28.3174 48.6773 30.1928 46.9223 31.9489C45.9397 32.8872 45.0051 33.8752 44.1223 34.9089C43.2079 35.9481 42.4178 36.9452 41.7764 37.9072L41.8096 37.8913C37.2621 44.3646 34.5925 52.253 34.5925 60.765C34.5925 72.2887 39.4854 82.6695 47.307 89.9435C59.6416 80.689 73.8988 63.0021 77.6958 55.1851C79.1185 52.2561 79.8509 50.1301 79.8509 48.0992C79.8509 45.4867 78.8038 43.1188 77.1065 41.3922C75.7365 40.1643 75.3031 39.7955 73.6237 39.1309C72.5918 38.7225 71.4583 38.5316 70.2833 38.5316C70.1888 38.5316 70.0947 38.533 70.0009 38.5357C68.5527 38.5777 67.3913 38.8814 66.2014 39.4435C65.0116 40.0056 63.9563 40.8058 63.097 41.7827C61.6752 43.2229 60.4246 45.0432 59.4096 47.0381V47.3482L57.7769 45.7155C59.1919 41.9059 64.3077 34.2866 73.4508 34.2866C78.7149 34.2866 82.5243 36.642 86.6338 39.183C89.3764 40.8788 92.2527 42.6573 95.7844 43.8735C97.2881 44.4093 98.5942 44.7359 99.9004 45.0624L100.041 45.0976C101.374 45.4315 103.681 46.0094 105.598 46.0094C109.506 46.0094 113.076 44.5627 115.802 42.1757ZM87.4918 70.5324C86.6701 70.5324 85.8877 70.7011 85.1774 71.0056C87.3702 68.6249 89.3797 66.2711 91.1853 64.0467C96.4861 65.3273 105.483 70.586 101.934 76.6195C98.6683 82.1707 91.3303 89.5188 88.5456 91.6403L86.858 90.5862C91.7802 83.9744 92.6704 80.4818 92.9924 79.2185C93.0109 79.1458 93.0276 79.0805 93.043 79.0224C93.3265 77.9547 93.3695 77.2636 93.3695 76.4101C93.3695 73.164 90.738 70.5324 87.4918 70.5324Z" fill="url(#paint0_linear_705_15106)"/>
</g>
<path d="M0 144.185C0 141.274 0.582151 138.74 1.74645 136.582C2.91075 134.391 4.52023 132.696 6.57488 131.497C8.66377 130.299 11.0437 129.699 13.7148 129.699C17.1734 129.699 20.0157 130.538 22.2416 132.216C24.5017 133.894 25.9913 136.223 26.7104 139.202H21.6766C21.1971 137.49 20.2554 136.137 18.8514 135.144C17.4816 134.151 15.7694 133.655 13.7148 133.655C11.0437 133.655 8.88636 134.579 7.24264 136.428C5.59892 138.243 4.77706 140.829 4.77706 144.185C4.77706 147.575 5.59892 150.195 7.24264 152.044C8.88636 153.893 11.0437 154.818 13.7148 154.818C15.7694 154.818 17.4816 154.338 18.8514 153.379C20.2212 152.42 21.1629 151.051 21.6766 149.27H26.7104C25.9571 152.146 24.4503 154.458 22.1902 156.204C19.9301 157.917 17.105 158.773 13.7148 158.773C11.0437 158.773 8.66377 158.173 6.57488 156.975C4.52023 155.776 2.91075 154.081 1.74645 151.89C0.582151 149.698 0 147.13 0 144.185Z" fill="#EAEBF0"/>
<path d="M28.119 144.133C28.119 141.257 28.7012 138.74 29.8655 136.582C31.0298 134.391 32.6221 132.696 34.6425 131.497C36.6972 130.299 38.9744 129.699 41.4742 129.699C43.9398 129.699 46.0801 130.23 47.895 131.292C49.7099 132.353 51.0626 133.689 51.9529 135.298V130.162H56.6786V158.31H51.9529V153.071C51.0283 154.715 49.6415 156.085 47.7923 157.18C45.9773 158.242 43.8542 158.773 41.4229 158.773C38.923 158.773 36.6629 158.156 34.6425 156.924C32.6221 155.691 31.0298 153.961 29.8655 151.736C28.7012 149.51 28.119 146.976 28.119 144.133ZM51.9529 144.185C51.9529 142.062 51.5249 140.212 50.6688 138.637C49.8127 137.062 48.6484 135.863 47.1759 135.042C45.7376 134.185 44.1453 133.757 42.3988 133.757C40.6524 133.757 39.06 134.168 37.6218 134.99C36.1835 135.812 35.0363 137.011 34.1802 138.586C33.3241 140.161 32.8961 142.01 32.8961 144.133C32.8961 146.291 33.3241 148.174 34.1802 149.784C35.0363 151.359 36.1835 152.575 37.6218 153.431C39.06 154.252 40.6524 154.663 42.3988 154.663C44.1453 154.663 45.7376 154.252 47.1759 153.431C48.6484 152.575 49.8127 151.359 50.6688 149.784C51.5249 148.174 51.9529 146.308 51.9529 144.185Z" fill="#EAEBF0"/>
<path d="M66.1702 120.299V158.31H61.4958V120.299H66.1702Z" fill="#EAEBF0"/>
<path d="M83.3313 158.773C80.6945 158.773 78.2974 158.173 76.14 156.975C74.0169 155.776 72.3389 154.081 71.1061 151.89C69.9076 149.664 69.3083 147.095 69.3083 144.185C69.3083 141.308 69.9247 138.774 71.1575 136.582C72.4245 134.357 74.1367 132.662 76.2941 131.497C78.4515 130.299 80.8657 129.699 83.5368 129.699C86.2078 129.699 88.622 130.299 90.7794 131.497C92.9368 132.662 94.6319 134.339 95.8647 136.531C97.1317 138.723 97.7652 141.274 97.7652 144.185C97.7652 147.095 97.1146 149.664 95.8133 151.89C94.5462 154.081 92.8169 155.776 90.6253 156.975C88.4337 158.173 86.0023 158.773 83.3313 158.773ZM83.3313 154.663C85.0093 154.663 86.5845 154.27 88.057 153.482C89.5295 152.694 90.7109 151.513 91.6012 149.938C92.5258 148.362 92.9881 146.445 92.9881 144.185C92.9881 141.925 92.543 140.007 91.6526 138.432C90.7623 136.856 89.598 135.692 88.1597 134.939C86.7215 134.151 85.1634 133.757 83.4854 133.757C81.7732 133.757 80.1979 134.151 78.7597 134.939C77.3557 135.692 76.2256 136.856 75.3695 138.432C74.5134 140.007 74.0854 141.925 74.0854 144.185C74.0854 146.479 74.4963 148.414 75.3182 149.989C76.1743 151.564 77.3043 152.746 78.7083 153.533C80.1123 154.287 81.6533 154.663 83.3313 154.663Z" fill="#EAEBF0"/>
<path d="M105.503 134.733C106.325 133.124 107.49 131.874 108.996 130.984C110.537 130.093 112.404 129.648 114.595 129.648V134.476H113.362C108.123 134.476 105.503 137.319 105.503 143.003V158.31H100.829V130.162H105.503V134.733Z" fill="#EAEBF0"/>
<path d="M119.323 125.59C118.433 125.59 117.68 125.282 117.063 124.666C116.447 124.049 116.139 123.296 116.139 122.405C116.139 121.515 116.447 120.762 117.063 120.145C117.68 119.529 118.433 119.221 119.323 119.221C120.179 119.221 120.899 119.529 121.481 120.145C122.097 120.762 122.405 121.515 122.405 122.405C122.405 123.296 122.097 124.049 121.481 124.666C120.899 125.282 120.179 125.59 119.323 125.59ZM121.583 130.162V158.31H116.909V130.162H121.583Z" fill="#EAEBF0"/>
<path d="M152.151 143.157C152.151 144.048 152.1 144.989 151.997 145.983H129.499C129.67 148.756 130.612 150.931 132.324 152.506C134.07 154.047 136.176 154.818 138.642 154.818C140.662 154.818 142.34 154.355 143.676 153.431C145.046 152.472 146.004 151.205 146.552 149.63H151.586C150.833 152.335 149.326 154.544 147.066 156.256C144.806 157.934 141.998 158.773 138.642 158.773C135.971 158.773 133.574 158.173 131.451 156.975C129.362 155.776 127.718 154.081 126.519 151.89C125.321 149.664 124.722 147.095 124.722 144.185C124.722 141.274 125.304 138.723 126.468 136.531C127.632 134.339 129.259 132.662 131.348 131.497C133.471 130.299 135.902 129.699 138.642 129.699C141.313 129.699 143.676 130.282 145.73 131.446C147.785 132.61 149.36 134.22 150.456 136.274C151.586 138.295 152.151 140.589 152.151 143.157ZM147.323 142.181C147.323 140.401 146.929 138.877 146.141 137.61C145.354 136.309 144.275 135.333 142.905 134.682C141.57 133.997 140.08 133.655 138.436 133.655C136.074 133.655 134.053 134.408 132.375 135.915C130.731 137.421 129.79 139.51 129.55 142.181H147.323Z" fill="#EAEBF0"/>
<path d="M101.827 163.503C102.012 163.18 102.282 162.917 102.638 162.712C102.993 162.508 103.399 162.406 103.853 162.406C104.341 162.406 104.779 162.521 105.168 162.752C105.557 162.982 105.863 163.309 106.087 163.73C106.311 164.145 106.423 164.63 106.423 165.183C106.423 165.73 106.311 166.218 106.087 166.646C105.863 167.074 105.553 167.407 105.158 167.644C104.769 167.881 104.334 168 103.853 168C103.385 168 102.974 167.898 102.618 167.694C102.269 167.489 102.005 167.229 101.827 166.913V167.911H100.928V160.597H101.827V163.503ZM105.504 165.183C105.504 164.775 105.421 164.419 105.257 164.116C105.092 163.813 104.868 163.582 104.585 163.424C104.308 163.266 104.002 163.187 103.665 163.187C103.336 163.187 103.03 163.269 102.746 163.434C102.47 163.592 102.246 163.826 102.074 164.136C101.91 164.439 101.827 164.791 101.827 165.193C101.827 165.602 101.91 165.961 102.074 166.27C102.246 166.573 102.47 166.807 102.746 166.972C103.03 167.13 103.336 167.209 103.665 167.209C104.002 167.209 104.308 167.13 104.585 166.972C104.868 166.807 105.092 166.573 105.257 166.27C105.421 165.961 105.504 165.598 105.504 165.183Z" fill="#EAEBF0"/>
<path d="M112.114 162.495V167.911H111.214V167.11C111.043 167.387 110.803 167.605 110.493 167.763C110.19 167.914 109.854 167.99 109.485 167.99C109.063 167.99 108.684 167.904 108.348 167.733C108.012 167.555 107.745 167.292 107.548 166.942C107.356 166.593 107.261 166.168 107.261 165.667V162.495H108.15V165.549C108.15 166.083 108.286 166.494 108.556 166.784C108.826 167.068 109.195 167.209 109.663 167.209C110.144 167.209 110.523 167.061 110.799 166.765C111.076 166.468 111.214 166.036 111.214 165.47V162.495H112.114Z" fill="#EAEBF0"/>
<path d="M114.235 163.374C114.393 163.065 114.617 162.824 114.907 162.653C115.204 162.482 115.563 162.396 115.985 162.396V163.325H115.747C114.739 163.325 114.235 163.872 114.235 164.966V167.911H113.336V162.495H114.235V163.374Z" fill="#EAEBF0"/>
<path d="M119.365 162.396C120.024 162.396 120.558 162.597 120.966 162.999C121.375 163.394 121.579 163.967 121.579 164.719V167.911H120.69V164.847C120.69 164.307 120.555 163.895 120.285 163.612C120.014 163.322 119.645 163.177 119.178 163.177C118.703 163.177 118.324 163.325 118.041 163.622C117.764 163.918 117.626 164.35 117.626 164.916V167.911H116.726V162.495H117.626V163.266C117.804 162.989 118.044 162.775 118.347 162.623C118.657 162.472 118.996 162.396 119.365 162.396Z" fill="#EAEBF0"/>
<path d="M127.294 163.236H126.158V167.911H125.258V163.236H124.557V162.495H125.258V162.109C125.258 161.503 125.413 161.062 125.723 160.785C126.039 160.502 126.543 160.36 127.235 160.36V161.111C126.84 161.111 126.56 161.19 126.395 161.348C126.237 161.5 126.158 161.754 126.158 162.109V162.495H127.294V163.236Z" fill="#EAEBF0"/>
<path d="M130.409 168C129.901 168 129.44 167.885 129.025 167.654C128.617 167.423 128.294 167.097 128.056 166.676C127.826 166.247 127.711 165.753 127.711 165.193C127.711 164.64 127.829 164.152 128.066 163.73C128.31 163.302 128.64 162.976 129.055 162.752C129.47 162.521 129.934 162.406 130.448 162.406C130.962 162.406 131.427 162.521 131.842 162.752C132.257 162.976 132.583 163.299 132.82 163.72C133.064 164.142 133.186 164.633 133.186 165.193C133.186 165.753 133.061 166.247 132.81 166.676C132.567 167.097 132.234 167.423 131.812 167.654C131.391 167.885 130.923 168 130.409 168ZM130.409 167.209C130.732 167.209 131.035 167.134 131.318 166.982C131.601 166.83 131.829 166.603 132 166.3C132.178 165.997 132.267 165.628 132.267 165.193C132.267 164.758 132.181 164.389 132.01 164.086C131.839 163.783 131.615 163.559 131.338 163.414C131.061 163.262 130.761 163.187 130.438 163.187C130.109 163.187 129.806 163.262 129.529 163.414C129.259 163.559 129.042 163.783 128.877 164.086C128.712 164.389 128.63 164.758 128.63 165.193C128.63 165.635 128.709 166.007 128.867 166.31C129.032 166.613 129.249 166.84 129.519 166.992C129.789 167.137 130.086 167.209 130.409 167.209Z" fill="#EAEBF0"/>
<path d="M134.972 163.374C135.13 163.065 135.354 162.824 135.644 162.653C135.94 162.482 136.299 162.396 136.721 162.396V163.325H136.484C135.476 163.325 134.972 163.872 134.972 164.966V167.911H134.072V162.495H134.972V163.374Z" fill="#EAEBF0"/>
<path d="M140.701 160.597V167.911H139.801V160.597H140.701Z" fill="#EAEBF0"/>
<path d="M142.401 161.615C142.23 161.615 142.085 161.556 141.967 161.437C141.848 161.319 141.789 161.174 141.789 161.002C141.789 160.831 141.848 160.686 141.967 160.568C142.085 160.449 142.23 160.39 142.401 160.39C142.566 160.39 142.705 160.449 142.817 160.568C142.935 160.686 142.994 160.831 142.994 161.002C142.994 161.174 142.935 161.319 142.817 161.437C142.705 161.556 142.566 161.615 142.401 161.615ZM142.836 162.495V167.911H141.937V162.495H142.836Z" fill="#EAEBF0"/>
<path d="M146.277 163.236H145.14V167.911H144.241V163.236H143.539V162.495H144.241V162.109C144.241 161.503 144.396 161.062 144.705 160.785C145.022 160.502 145.526 160.36 146.217 160.36V161.111C145.822 161.111 145.542 161.19 145.377 161.348C145.219 161.5 145.14 161.754 145.14 162.109V162.495H146.277V163.236Z" fill="#EAEBF0"/>
<path d="M151.971 164.995C151.971 165.167 151.961 165.348 151.941 165.539H147.612C147.645 166.073 147.826 166.491 148.156 166.794C148.492 167.091 148.897 167.239 149.371 167.239C149.76 167.239 150.083 167.15 150.34 166.972C150.603 166.788 150.788 166.544 150.893 166.241H151.862C151.717 166.761 151.427 167.186 150.992 167.516C150.557 167.839 150.017 168 149.371 168C148.857 168 148.396 167.885 147.988 167.654C147.586 167.423 147.269 167.097 147.039 166.676C146.808 166.247 146.693 165.753 146.693 165.193C146.693 164.633 146.805 164.142 147.029 163.72C147.253 163.299 147.566 162.976 147.968 162.752C148.376 162.521 148.844 162.406 149.371 162.406C149.885 162.406 150.34 162.518 150.735 162.742C151.131 162.966 151.434 163.276 151.645 163.671C151.862 164.06 151.971 164.501 151.971 164.995ZM151.042 164.808C151.042 164.465 150.966 164.172 150.814 163.928C150.663 163.678 150.455 163.49 150.192 163.365C149.935 163.233 149.648 163.167 149.332 163.167C148.877 163.167 148.488 163.312 148.165 163.602C147.849 163.892 147.668 164.294 147.622 164.808H151.042Z" fill="#EAEBF0"/>
<defs>
<filter id="filter0_b_705_15106" x="28.3654" y="-6.22717" width="95.7454" height="113.057" filterUnits="userSpaceOnUse" color-interpolation-filters="sRGB">
<feFlood flood-opacity="0" result="BackgroundImageFix"/>
<feGaussianBlur in="BackgroundImageFix" stdDeviation="3.11358"/>
<feComposite in2="SourceAlpha" operator="in" result="effect1_backgroundBlur_705_15106"/>
<feBlend mode="normal" in="SourceGraphic" in2="effect1_backgroundBlur_705_15106" result="shape"/>
</filter>
<linearGradient id="paint0_linear_705_15106" x1="142.992" y1="19.9744" x2="63.78" y2="85.5554" gradientUnits="userSpaceOnUse">
<stop stop-color="#FFED52"/>
<stop offset="0.302083" stop-color="#FFB23F"/>
<stop offset="1" stop-color="#FF5D39"/>
</linearGradient>
</defs>
</svg>
