<svg width="25" height="16" viewBox="0 0 25 16" fill="none" xmlns="http://www.w3.org/2000/svg">
<path d="M24.1938 13.7226C23.8901 13.5866 23.5225 13.4525 23.0908 13.332C18.8076 13.0124 15.5049 13.8995 12.3163 14.7561C12.1338 14.8051 11.9516 14.854 11.7696 14.9026C10.7942 15.163 9.7978 15.2942 8.79844 15.2939H7.21608C6.61245 15.2939 4.53334 15.2233 3.12645 14.3051C1.89904 13.5052 1.0398 12.2393 0.835575 10.9702C0.64097 10.5567 0.461927 10.0726 0.330905 9.67847C0.255918 9.82143 0.208064 9.98309 0.191419 10.152C0.188874 10.2767 0.191563 10.4014 0.199475 10.5258C0.242311 12.1329 1.17369 13.7443 2.64425 14.7873C3.05862 15.0408 3.48509 15.2649 3.92146 15.4583C4.99257 15.8246 6.10163 16.0069 7.21549 15.9998H11.459C11.459 15.9998 22.0081 15.9974 22.0258 15.9951C23.0641 15.7806 23.7494 14.8649 24.1938 13.7226Z" fill="url(#paint0_linear_807_1141)"/>
<g filter="url(#filter0_b_807_1141)">
<path fill-rule="evenodd" clip-rule="evenodd" d="M23.8845 3.48433C24.4695 5.0769 24.8263 6.77626 24.9397 8.51095C24.9948 9.58861 24.8897 11.9334 24.1938 13.7225C23.8902 13.5865 23.5227 13.4525 23.0913 13.3321C23.2808 13.3462 23.4722 13.3627 23.6656 13.3817L23.6686 13.3798C23.957 12.5766 24.1503 11.7291 24.2429 10.8618C22.1206 10.3935 19.2506 9.99045 16.5474 10.3349C16.4099 10.3589 16.2714 10.3825 16.1319 10.4063C14.9313 10.6109 13.6534 10.8286 12.2698 11.4445C7.39631 13.6099 3.64387 13.3582 0.800209 10.6793C0.808012 10.7759 0.819745 10.8726 0.83528 10.9693C0.64079 10.5559 0.461871 10.072 0.330933 9.67815C0.351992 9.63803 0.37519 9.59938 0.400435 9.56246C0.515686 9.39391 0.668795 9.26841 0.841669 9.20079C2.11418 8.62027 5.61553 7.12629 7.13228 6.4791C7.19644 6.45173 7.25705 6.42587 7.31379 6.40166C7.35037 6.3863 7.38993 6.38426 7.42748 6.39578C7.46503 6.4073 7.4989 6.43187 7.52482 6.4664L8.81127 8.1884C8.84097 8.22827 8.87783 8.25954 8.91908 8.27986C8.96033 8.30018 9.00489 8.30902 9.04941 8.30571C9.09392 8.3024 9.13723 8.28703 9.17607 8.26076C9.2149 8.23448 9.24826 8.19799 9.27362 8.15403C9.31095 8.08555 9.32802 8.00404 9.32211 7.92255C9.3162 7.84106 9.28764 7.76431 9.241 7.70458L8.09485 6.16881C8.06099 6.12324 8.04321 6.06371 8.04527 6.00275C8.04732 5.94179 8.06904 5.88416 8.10585 5.84202L8.31374 5.60658C8.33548 5.58182 8.36166 5.56336 8.39027 5.5526C8.41888 5.54183 8.44917 5.53906 8.47882 5.5445C8.50846 5.54993 8.53668 5.56342 8.5613 5.58393C8.58592 5.60445 8.60629 5.63144 8.62086 5.66285L9.83913 8.28799C9.87709 8.36989 9.94065 8.43035 10.0158 8.4561C10.091 8.48184 10.1716 8.47074 10.24 8.42525C10.3083 8.37976 10.3588 8.30361 10.3803 8.21353C10.4018 8.12346 10.3925 8.02685 10.3545 7.94496L9.76957 6.68395C9.76545 6.67526 9.76395 6.66515 9.76532 6.65529C9.76669 6.64544 9.77084 6.63645 9.77708 6.62983C9.78332 6.62321 9.79127 6.61936 9.79959 6.61893C9.80792 6.61849 9.81612 6.6215 9.82282 6.62744L10.707 7.39168C10.7384 7.41882 10.774 7.43829 10.8117 7.44897C10.8494 7.45965 10.8884 7.46134 10.9267 7.45392C10.9649 7.44651 11.0015 7.43015 11.0345 7.40578C11.0674 7.3814 11.096 7.34949 11.1187 7.31186C11.1414 7.27423 11.1576 7.23163 11.1665 7.18648C11.1754 7.14133 11.1768 7.09451 11.1706 7.04871C11.1645 7.00291 11.1508 6.95901 11.1305 6.91954C11.1101 6.88006 11.0835 6.84576 11.0521 6.81862L9.12644 5.0653C9.10376 5.04465 9.08509 5.01833 9.07174 4.98818C9.05838 4.95802 9.05066 4.92474 9.04911 4.89065C9.04756 4.85657 9.05221 4.82248 9.06275 4.79076C9.07329 4.75905 9.08946 4.73045 9.11013 4.70697L9.61257 4.13979C9.63276 4.11686 9.65678 4.09932 9.68305 4.08834C9.70932 4.07736 9.73724 4.07319 9.76495 4.07611C9.79267 4.07903 9.81955 4.08896 9.84382 4.10525C9.86809 4.12155 9.88919 4.14384 9.90574 4.17064L11.7174 7.10609C11.7414 7.14507 11.7718 7.17771 11.8068 7.202C11.8418 7.22628 11.8806 7.24168 11.9207 7.24725C11.9609 7.25281 12.0016 7.24842 12.0403 7.23434C12.0789 7.22027 12.1148 7.19681 12.1456 7.16542C12.2022 7.10231 12.2371 7.01606 12.2433 6.92368C12.2495 6.83129 12.2266 6.73947 12.1792 6.66629L11.3857 5.37703C11.3808 5.3689 11.3784 5.35899 11.3788 5.34897C11.3793 5.33895 11.3826 5.32941 11.3882 5.32197C11.3938 5.31452 11.4014 5.30961 11.4097 5.30806C11.418 5.30651 11.4264 5.30842 11.4337 5.31346L12.6077 6.14526C12.675 6.19297 12.7553 6.2067 12.8311 6.18343C12.9068 6.16016 12.9717 6.1018 13.0115 6.02119C13.0513 5.94057 13.0628 5.84431 13.0434 5.75358C13.024 5.66284 12.9752 5.58506 12.908 5.53736L10.4207 3.62748C10.3956 3.6082 10.3745 3.58232 10.359 3.55181C10.3435 3.5213 10.334 3.48696 10.3312 3.45138C10.3284 3.41581 10.3323 3.37994 10.3428 3.34648C10.3533 3.31303 10.37 3.28288 10.3917 3.25831C10.5736 3.0523 10.7568 2.84582 10.9379 2.64193C10.9574 2.62013 10.9804 2.60331 11.0055 2.59251C11.0306 2.5817 11.0573 2.57712 11.0839 2.57906C11.1105 2.581 11.1365 2.58941 11.1603 2.60378C11.1842 2.61815 11.2053 2.63818 11.2224 2.66265L13.3709 5.73065C13.4211 5.80246 13.4931 5.84743 13.571 5.85567C13.6488 5.8639 13.7263 5.83473 13.7862 5.77456C13.8461 5.7144 13.8837 5.62818 13.8905 5.53486C13.8974 5.44154 13.8731 5.34877 13.8228 5.27696L11.6388 2.15693C11.6065 2.11082 11.5902 2.05165 11.5932 1.99157C11.5962 1.9315 11.6183 1.87508 11.6549 1.8339C12.1642 1.26014 12.6181 0.750884 12.9378 0.397725C13.1055 0.207813 13.3149 0.0790553 13.5414 0.0265195C13.768 -0.0260163 14.0023 -0.000156184 14.217 0.101073C14.4269 0.198411 14.6094 0.365137 14.7433 0.581863C14.8772 0.79859 14.9571 1.05641 14.9735 1.32536L15.0246 2.22167C15.0536 2.76188 15.2351 3.27421 15.5392 3.67448C15.8434 4.07474 16.2522 4.33913 16.6983 4.4242C18.9616 4.83669 20.6068 3.71624 21.2495 2.90751C21.4324 2.67601 21.6606 2.50288 21.9135 2.4038C22.1663 2.30472 22.4358 2.28284 22.6975 2.34013C22.9592 2.39741 23.2048 2.53207 23.4121 2.73187C23.6194 2.93167 23.7818 3.19031 23.8845 3.48433Z" fill="url(#paint1_linear_807_1141)"/>
</g>
<defs>
<filter id="filter0_b_807_1141" x="-59.6691" y="-60" width="144.621" height="133.722" filterUnits="userSpaceOnUse" color-interpolation-filters="sRGB">
<feFlood flood-opacity="0" result="BackgroundImageFix"/>
<feGaussianBlur in="BackgroundImageFix" stdDeviation="30"/>
<feComposite in2="SourceAlpha" operator="in" result="effect1_backgroundBlur_807_1141"/>
<feBlend mode="normal" in="SourceGraphic" in2="effect1_backgroundBlur_807_1141" result="shape"/>
</filter>
<linearGradient id="paint0_linear_807_1141" x1="31.4297" y1="10.9336" x2="28.9342" y2="20.4092" gradientUnits="userSpaceOnUse">
<stop stop-color="#FFED52"/>
<stop offset="0.302083" stop-color="#FFB23F"/>
<stop offset="1" stop-color="#FF5D39"/>
</linearGradient>
<linearGradient id="paint1_linear_807_1141" x1="32.3742" y1="2.72453" x2="23.0207" y2="19.5071" gradientUnits="userSpaceOnUse">
<stop stop-color="#FFED52"/>
<stop offset="0.302083" stop-color="#FFB23F"/>
<stop offset="1" stop-color="#FF5D39"/>
</linearGradient>
</defs>
</svg>