<svg width="481" height="151" viewBox="0 0 481 151" fill="none" xmlns="http://www.w3.org/2000/svg">
<path d="M233.034 3.99972C271.431 -8.96282 301.553 22.2693 301.553 22.2693C301.553 22.2693 316.581 28.7212 334.801 43.3542C334.801 77.8708 401.407 64.6999 401.407 92.5728L441.112 121.305L480.816 150.037H0.586426C0.586426 142.546 10.5074 140.962 8.0469 132.275C6.9957 128.564 1.45379 120.454 3.57062 116.454C4.7565 114.213 11.4702 111.132 13.7169 109.737C23.4084 103.72 34.3086 99.5751 43.5588 92.5728C46.0134 90.7146 51.4184 87.7748 51.6161 84.2144C51.8444 80.1031 56.8658 79.8982 60.2703 78.2441C68.4982 74.2464 134.088 72.8441 134.534 61.2267C134.904 51.6013 158.756 43.5664 164.421 36.6403C168.632 31.4917 190.152 35.7917 193.556 30.1833C213.024 30.1833 233.034 3.99972 233.034 3.99972Z" fill="url(#paint0_linear_705_15105)" fill-opacity="0.68"/>
<defs>
<linearGradient id="paint0_linear_705_15105" x1="309.306" y1="9.01679" x2="294.276" y2="151.722" gradientUnits="userSpaceOnUse">
<stop stop-color="#363B4D"/>
<stop offset="0.810456" stop-color="#262B3B" stop-opacity="0"/>
</linearGradient>
</defs>
</svg>
