<svg width="1140" height="355" viewBox="0 0 1140 355" fill="none" xmlns="http://www.w3.org/2000/svg">
<path d="M551.927 7.49588C643 -23.3493 714.445 50.9696 714.445 50.9696C714.445 50.9696 750.09 66.3223 793.306 101.142C793.306 183.277 951.289 151.936 951.289 218.261L1045.46 286.63L1139.64 355H0.588867C0.588867 337.176 24.1201 333.406 18.2842 312.735C15.7909 303.904 2.64616 284.605 7.66702 275.087C10.4798 269.755 26.404 262.424 31.7327 259.105C54.7199 244.786 80.5738 234.924 102.514 218.261C108.336 213.839 121.156 206.844 121.625 198.372C122.167 188.589 134.077 188.101 142.152 184.165C161.668 174.652 317.238 171.315 318.298 143.671C319.175 120.767 375.747 101.647 389.184 85.1662C399.172 72.9148 450.215 83.1469 458.289 69.8014C504.467 69.8012 551.927 7.49588 551.927 7.49588Z" fill="url(#paint0_linear_705_15104)" fill-opacity="0.36"/>
<defs>
<linearGradient id="paint0_linear_705_15104" x1="481.592" y1="14.4178" x2="516.594" y2="325.488" gradientUnits="userSpaceOnUse">
<stop stop-color="#363B4D"/>
<stop offset="0.785403" stop-color="#262B3B" stop-opacity="0"/>
</linearGradient>
</defs>
</svg>
