<svg width="21" height="18" viewBox="0 0 21 18" fill="none" xmlns="http://www.w3.org/2000/svg">
<g filter="url(#filter0_b_701_10057)">
<path d="M16.4823 14.3692C14.3853 14.3692 12.6787 12.6627 12.6787 10.5656C12.6787 8.46854 14.3853 6.76199 16.4823 6.76199H18.5955V5.07149C18.5955 4.13918 17.8373 3.38099 16.905 3.38099H16.0597V1.6905C16.0597 0.758188 15.3015 0 14.3692 0H2.53574C1.28224 0 0.245967 0.916249 0.0431077 2.11228C0.0245122 2.18159 0 2.24921 0 2.32443V15.2145C0 16.6125 1.1377 17.7502 2.53574 17.7502H16.905C17.8373 17.7502 18.5955 16.992 18.5955 16.0597V14.3692H16.4823ZM1.6905 2.53574C1.6905 2.07001 2.06917 1.6905 2.53574 1.6905H14.3692V3.38099H2.53574C2.06917 3.38099 1.6905 3.00148 1.6905 2.53574Z" fill="#EAEBF0" fill-opacity="0.2"/>
</g>
<path d="M19.6521 8.02972H16.4824C15.0844 8.02972 13.9467 9.16743 13.9467 10.5655C13.9467 11.9635 15.0844 13.1012 16.4824 13.1012H19.6521C20.002 13.1012 20.286 12.8172 20.286 12.4673V8.66366C20.286 8.31373 20.002 8.02972 19.6521 8.02972ZM16.4824 11.4107C16.0158 11.4107 15.6372 11.032 15.6372 10.5655C15.6372 10.0989 16.0158 9.72022 16.4824 9.72022C16.949 9.72022 17.3276 10.0989 17.3276 10.5655C17.3276 11.032 16.949 11.4107 16.4824 11.4107Z" fill="#EAEBF0" fill-opacity="0.4"/>
<defs>
<filter id="filter0_b_701_10057" x="-33.8099" y="-33.8099" width="86.2153" height="85.3701" filterUnits="userSpaceOnUse" color-interpolation-filters="sRGB">
<feFlood flood-opacity="0" result="BackgroundImageFix"/>
<feGaussianBlur in="BackgroundImageFix" stdDeviation="16.905"/>
<feComposite in2="SourceAlpha" operator="in" result="effect1_backgroundBlur_701_10057"/>
<feBlend mode="normal" in="SourceGraphic" in2="effect1_backgroundBlur_701_10057" result="shape"/>
</filter>
</defs>
</svg>