<svg width="21" height="18" viewBox="0 0 21 18" fill="none" xmlns="http://www.w3.org/2000/svg">
<g filter="url(#filter0_b_803_5040)">
<path d="M16.4823 14.3692C14.3853 14.3692 12.6787 12.6627 12.6787 10.5656C12.6787 8.46854 14.3853 6.76199 16.4823 6.76199H18.5955V5.07149C18.5955 4.13918 17.8373 3.38099 16.905 3.38099H16.0597V1.6905C16.0597 0.758188 15.3015 0 14.3692 0H2.53574C1.28224 0 0.245967 0.916249 0.0431077 2.11228C0.0245122 2.18159 0 2.24921 0 2.32443V15.2145C0 16.6125 1.1377 17.7502 2.53574 17.7502H16.905C17.8373 17.7502 18.5955 16.992 18.5955 16.0597V14.3692H16.4823ZM1.6905 2.53574C1.6905 2.07001 2.06917 1.6905 2.53574 1.6905H14.3692V3.38099H2.53574C2.06917 3.38099 1.6905 3.00148 1.6905 2.53574Z" fill="url(#paint0_linear_803_5040)"/>
</g>
<path d="M19.652 8.02979H16.4823C15.0842 8.02979 13.9465 9.16749 13.9465 10.5655C13.9465 11.9636 15.0842 13.1013 16.4823 13.1013H19.652C20.0019 13.1013 20.2859 12.8173 20.2859 12.4673V8.66372C20.2859 8.31379 20.0019 8.02979 19.652 8.02979ZM16.4823 11.4108C16.0157 11.4108 15.637 11.0321 15.637 10.5655C15.637 10.099 16.0157 9.72028 16.4823 9.72028C16.9489 9.72028 17.3275 10.099 17.3275 10.5655C17.3275 11.0321 16.9489 11.4108 16.4823 11.4108Z" fill="url(#paint1_linear_803_5040)"/>
<defs>
<filter id="filter0_b_803_5040" x="-33.8099" y="-33.8099" width="86.2153" height="85.3701" filterUnits="userSpaceOnUse" color-interpolation-filters="sRGB">
<feFlood flood-opacity="0" result="BackgroundImageFix"/>
<feGaussianBlur in="BackgroundImageFix" stdDeviation="16.905"/>
<feComposite in2="SourceAlpha" operator="in" result="effect1_backgroundBlur_803_5040"/>
<feBlend mode="normal" in="SourceGraphic" in2="effect1_backgroundBlur_803_5040" result="shape"/>
</filter>
<linearGradient id="paint0_linear_803_5040" x1="24.2011" y1="3.52426" x2="9.99054" y2="18.4115" gradientUnits="userSpaceOnUse">
<stop stop-color="#FFED52"/>
<stop offset="0.302083" stop-color="#FFB23F"/>
<stop offset="1" stop-color="#FF5D39"/>
</linearGradient>
<linearGradient id="paint1_linear_803_5040" x1="22.1969" y1="9.03672" x2="18.2315" y2="13.9935" gradientUnits="userSpaceOnUse">
<stop stop-color="#FFED52"/>
<stop offset="0.302083" stop-color="#FFB23F"/>
<stop offset="1" stop-color="#FF5D39"/>
</linearGradient>
</defs>
</svg>
