<svg width="14" height="14" viewBox="0 0 14 14" fill="none" xmlns="http://www.w3.org/2000/svg">
    <g clip-path="url(#clip0_701_10212)">
    <path d="M2.91668 9.40682V0.583324C2.91668 0.26116 2.65549 0 2.33332 0C2.01116 0 1.75 0.26116 1.75 0.583324V9.40682C0.743559 9.66582 0 10.5793 0 11.6666C0 12.9554 1.04459 14 2.33332 14C3.62206 14 4.66665 12.9554 4.66665 11.6667C4.66668 10.5794 3.92309 9.66582 2.91668 9.40682ZM2.33332 12.8333C1.68891 12.8333 1.16665 12.3111 1.16665 11.6666C1.16665 11.0222 1.68891 10.5 2.33332 10.5C2.97773 10.5 3.5 11.0222 3.5 11.6667C3.5 12.3111 2.97776 12.8333 2.33332 12.8333Z" fill="#FF5D39"/>
    <path d="M13.9998 2.33332C13.9998 1.04459 12.9552 0 11.6665 0C10.3777 0 9.33313 1.04459 9.33313 2.33332C9.33313 3.42065 10.0767 4.33415 11.0831 4.59315V13.4166C11.0831 13.7388 11.3443 14 11.6665 14C11.9886 14 12.2498 13.7388 12.2498 13.4167V4.59318C13.2562 4.33418 13.9998 3.42065 13.9998 2.33332ZM11.6665 3.5C11.022 3.5 10.4998 2.97776 10.4998 2.33332C10.4998 1.68889 11.022 1.16665 11.6665 1.16665C12.3109 1.16665 12.8331 1.68889 12.8331 2.33332C12.8331 2.97776 12.3109 3.5 11.6665 3.5Z" fill="#FF5D39"/>
    <path d="M7.58352 4.74018V0.583324C7.58352 0.26116 7.32236 0 7.00019 0C6.67803 0 6.41687 0.26116 6.41687 0.583324V4.74015C5.41043 4.99915 4.66687 5.91265 4.66687 6.99997C4.66687 8.0873 5.41043 9.0008 6.41687 9.2598V13.4166C6.41687 13.7388 6.67803 13.9999 7.00019 13.9999C7.32236 13.9999 7.58352 13.7388 7.58352 13.4166V9.25982C8.58996 9.00082 9.33352 8.08732 9.33352 7C9.33352 5.91268 8.58996 4.99918 7.58352 4.74018ZM7.00019 8.16668C6.35578 8.16668 5.83352 7.64444 5.83352 7C5.83352 6.35556 6.35576 5.83332 7.00019 5.83332C7.64463 5.83332 8.16687 6.35556 8.16687 7C8.16687 7.64444 7.6446 8.16668 7.00019 8.16668Z" fill="#FF5D39"/>
    </g>
    <defs>
    <clipPath id="clip0_701_10212">
    <rect width="14" height="14" fill="white"/>
    </clipPath>
    </defs>
</svg>