<svg width="10" height="14" viewBox="0 0 10 14" fill="none" xmlns="http://www.w3.org/2000/svg">
<path d="M5.00001 0.412109C2.94119 0.412109 1.29413 2.05917 1.29413 4.11799V5.76505C0.594132 5.76505 0.0588379 6.30034 0.0588379 7.00035V12.3533C0.0588379 13.0533 0.594132 13.5886 1.29413 13.5886H8.7059C9.4059 13.5886 9.94119 13.0533 9.94119 12.3533V7.00035C9.94119 6.30034 9.4059 5.76505 8.7059 5.76505V4.11799C8.7059 2.05917 7.05884 0.412109 5.00001 0.412109ZM9.11766 7.00035V12.3533C9.11766 12.6003 8.95296 12.7651 8.7059 12.7651H1.29413C1.04707 12.7651 0.882367 12.6003 0.882367 12.3533V7.00035C0.882367 6.75329 1.04707 6.58858 1.29413 6.58858H1.7059H8.29413H8.7059C8.95296 6.58858 9.11766 6.75329 9.11766 7.00035ZM2.11766 5.76505V4.11799C2.11766 2.51211 3.39413 1.23564 5.00001 1.23564C6.6059 1.23564 7.88237 2.51211 7.88237 4.11799V5.76505H2.11766Z" fill="#696B77"/>
<path d="M5 7.82422C4.3 7.82422 3.76471 8.35951 3.76471 9.05951C3.76471 9.59481 4.09412 10.0477 4.58824 10.2125V11.1183C4.58824 11.3654 4.75294 11.5301 5 11.5301C5.24706 11.5301 5.41177 11.3654 5.41177 11.1183V10.2125C5.90589 10.0477 6.2353 9.59481 6.2353 9.05951C6.2353 8.35951 5.7 7.82422 5 7.82422ZM5 9.47128C4.75294 9.47128 4.58824 9.30657 4.58824 9.05951C4.58824 8.81245 4.75294 8.64775 5 8.64775C5.24706 8.64775 5.41177 8.81245 5.41177 9.05951C5.41177 9.30657 5.24706 9.47128 5 9.47128Z" fill="#696B77"/>
</svg>
