<svg width="14" height="14" viewBox="0 0 14 14" fill="none" xmlns="http://www.w3.org/2000/svg">
<path d="M11.9453 2.78125H2.05469C1.47196 2.78125 1 3.25614 1 3.83594V10.1641C1 10.7473 1.47543 11.2188 2.05469 11.2188H11.9453C12.5232 11.2188 13 10.7493 13 10.1641V3.83594C13 3.25717 12.5299 2.78125 11.9453 2.78125ZM11.7976 3.48438C11.5821 3.69871 7.87382 7.38749 7.74578 7.51485C7.54656 7.71407 7.28172 7.82376 7 7.82376C6.71828 7.82376 6.45344 7.71405 6.25356 7.5142C6.16745 7.42853 2.50007 3.78048 2.20239 3.48438H11.7976ZM1.70312 10.021V3.97949L4.74152 7.00187L1.70312 10.021ZM2.20284 10.5156L5.24003 7.49774L5.75704 8.01203C6.08905 8.34405 6.53048 8.52688 7 8.52688C7.46952 8.52688 7.91095 8.34405 8.2423 8.01269L8.75997 7.49774L11.7972 10.5156H2.20284ZM12.2969 10.021L9.25848 7.00187L12.2969 3.97949V10.021Z" fill="#696B77"/>
</svg>
