<svg width="19" height="19" viewBox="0 0 19 19" xmlns="http://www.w3.org/2000/svg">
    <g clip-path="url(#clip0_701_10328)">
    <path d="M5.77144 15.0572C4.76572 15.0572 3.94286 15.88 3.94286 16.8857C3.94286 17.8914 4.76572 18.7143 5.77144 18.7143C6.77715 18.7143 7.60001 17.8914 7.60001 16.8857C7.60001 15.88 6.77715 15.0572 5.77144 15.0572ZM0.285721 0.428589V2.25716H2.11429L5.40572 9.20573L4.12572 11.4C4.03429 11.6743 3.94286 12.04 3.94286 12.3143C3.94286 13.32 4.76572 14.1429 5.77144 14.1429H16.7429V12.3143H6.13715C6.04572 12.3143 5.95429 12.2229 5.95429 12.1314V12.04L6.77715 10.4857H13.5429C14.2743 10.4857 14.8229 10.12 15.0971 9.57141L18.3886 3.62859C18.5714 3.44573 18.5714 3.3543 18.5714 3.17145C18.5714 2.62287 18.2057 2.25716 17.6572 2.25716H4.12572L3.30286 0.428589H0.285721ZM14.9143 15.0572C13.9086 15.0572 13.0857 15.88 13.0857 16.8857C13.0857 17.8914 13.9086 18.7143 14.9143 18.7143C15.92 18.7143 16.7429 17.8914 16.7429 16.8857C16.7429 15.88 15.92 15.0572 14.9143 15.0572Z" fill="currentColor"/>
    </g>
    <defs>
    <clipPath id="clip0_701_10328">
    <rect width="18.2857" height="18.2857" fill="white" transform="translate(0.285721 0.428589)"/>
    </clipPath>
    </defs>
</svg>