<svg width="10" height="12" viewBox="0 0 10 12" fill="none" xmlns="http://www.w3.org/2000/svg">
<path d="M8.38509 6.07882C8.34449 6.03731 8.29603 6.00431 8.24254 5.98172C8.18906 5.95914 8.13161 5.94743 8.07355 5.94727C8.01549 5.94711 7.95798 5.95851 7.90437 5.9808C7.85076 6.0031 7.80212 6.03584 7.7613 6.07712C7.72047 6.1184 7.68827 6.16739 7.66657 6.22124C7.64487 6.2751 7.6341 6.33273 7.6349 6.39078C7.6357 6.44884 7.64804 6.50615 7.67122 6.55939C7.69439 6.61262 7.72793 6.66071 7.76988 6.70085C8.14106 7.0661 8.43554 7.5018 8.63605 7.9824C8.83656 8.46299 8.93905 8.9788 8.93752 9.49954C8.93752 10.0346 7.40369 10.812 5.00002 10.812C2.59635 10.812 1.06252 10.0343 1.06252 9.49867C1.06105 8.9815 1.16217 8.46918 1.36004 7.99136C1.5579 7.51353 1.84858 7.07971 2.21525 6.71499C2.25672 6.67455 2.28975 6.62629 2.31242 6.57299C2.33509 6.51969 2.34696 6.46242 2.34732 6.4045C2.34769 6.34658 2.33655 6.28917 2.31456 6.23559C2.29256 6.18201 2.26015 6.13333 2.21919 6.09237C2.17824 6.05142 2.12956 6.019 2.07597 5.99701C2.02239 5.97501 1.96498 5.96387 1.90706 5.96424C1.84914 5.96461 1.79187 5.97647 1.73857 5.99914C1.68528 6.02182 1.63701 6.05485 1.59658 6.09632C1.14832 6.54221 0.792978 7.0726 0.551111 7.65677C0.309244 8.24094 0.185662 8.86728 0.187521 9.49954C0.187521 10.9204 2.66683 11.687 5.00002 11.687C7.33321 11.687 9.81252 10.9204 9.81252 9.49954C9.81447 8.86302 9.6892 8.23253 9.44407 7.64511C9.19894 7.05768 8.8389 6.52515 8.38509 6.07882Z" fill="#FF5D39"/>
<path d="M5 6.4375C5.60571 6.4375 6.19781 6.25789 6.70143 5.92138C7.20506 5.58487 7.59759 5.10657 7.82938 4.54697C8.06118 3.98737 8.12182 3.3716 8.00366 2.77754C7.88549 2.18347 7.59381 1.63779 7.16551 1.20949C6.73722 0.781188 6.19153 0.489514 5.59746 0.371346C5.0034 0.253179 4.38763 0.313827 3.82803 0.54562C3.26843 0.777414 2.79014 1.16994 2.45362 1.67357C2.11711 2.17719 1.9375 2.7693 1.9375 3.375C1.93844 4.18694 2.26139 4.96535 2.83552 5.53948C3.40965 6.11361 4.18806 6.43656 5 6.4375ZM5 1.1875C5.43265 1.1875 5.85558 1.3158 6.21531 1.55616C6.57504 1.79653 6.85542 2.13817 7.02099 2.53788C7.18655 2.93759 7.22987 3.37743 7.14547 3.80176C7.06106 4.22609 6.85272 4.61587 6.5468 4.9218C6.24087 5.22772 5.85109 5.43606 5.42676 5.52047C5.00243 5.60487 4.56259 5.56155 4.16288 5.39599C3.76317 5.23042 3.42153 4.95004 3.18116 4.59031C2.94079 4.23058 2.8125 3.80765 2.8125 3.375C2.81318 2.79505 3.04387 2.23905 3.45396 1.82896C3.86405 1.41887 4.42005 1.18818 5 1.1875Z" fill="#FF5D39"/>
</svg>
